M48
; DRILL file KiCad 10.0.1 date 2026-09-20T14:17:00
; FORMAT={-:-/ absolute / inch / decimal}
; #@! TF.CreationDate,2026-09-20T14:17:00+05:30
; #@! TF.GenerationSoftware,Kicad,Pcbnew,10.0.1
; #@! TF.FileFunction,Plated,1,2,PTH
FMAT,2
INCH
; #@! TA.AperFunction,Plated,PTH,ViaDrill
T1C0.0118
; #@! TA.AperFunction,Plated,PTH,ComponentDrill
T2C0.0197
; #@! TA.AperFunction,Plated,PTH,ComponentDrill
T3C0.0236
%
G90
G05
T1
X2.85Y-4.655
X2.9076Y-4.527
X3.18Y-4.635
X3.19Y-4.32
X3.27Y-4.42
X3.275Y-4.195
X3.305Y-4.775
X3.4024Y-4.2074
X3.405Y-4.82
X3.4138Y-4.2491
X3.46Y-4.125
X3.465Y-3.905
X3.4852Y-4.092
X3.5177Y-4.4843
X3.5374Y-4.4508
X3.54Y-4.28
X3.553Y-4.132
X3.565Y-4.425
X3.5918Y-4.1652
X3.624Y-4.7687
X3.624Y-4.7687
X3.6241Y-4.2296
X3.675Y-3.57
X3.685Y-4.7776
X3.7598Y-4.2126
X3.775Y-3.625
X3.775Y-3.665
X3.7992Y-4.1732
X3.7992Y-4.2126
X3.8Y-3.6
X3.84Y-3.825
X3.845Y-3.855
X3.855Y-4.14
X3.895Y-3.725
X3.905Y-3.91
X3.93Y-3.69
X3.9664Y-3.7729
X4.02Y-4.545
X4.06Y-4.655
X4.085Y-3.76
X4.45Y-2.905
X4.5837Y-4.5079
X4.655Y-3.12
X4.685Y-2.75
X4.775Y-3.065
X4.8396Y-4.4685
X4.9016Y-4.4291
X5.035Y-3.19
X5.245Y-4.335
X5.59Y-2.755
X5.5906Y-3.0118
X5.93Y-4.625
X6.32Y-4.53
T2
X4.8839Y-4.2195
X4.9232Y-4.2195
X4.9626Y-4.2195
X5.002Y-4.2195
X5.0413Y-4.2195
X5.0807Y-4.2195
X5.1201Y-4.2195
X5.1594Y-4.2195
X5.1988Y-4.2195
X5.2382Y-4.2195
X5.2776Y-4.2195
X5.3169Y-4.2195
X5.3563Y-4.2195
X5.3957Y-4.2195
X5.435Y-4.2195
X5.4744Y-4.2195
X5.5138Y-4.2195
T3
G00X2.5906Y-4.7606
M15
G01X2.5906Y-4.8039
M16
G05
G00X2.5906Y-4.9311
M15
G01X2.5906Y-4.9626
M16
G05
G00X2.9307Y-4.7606
M15
G01X2.9307Y-4.8039
M16
G05
G00X2.9307Y-4.9311
M15
G01X2.9307Y-4.9626
M16
G05
M30
