%TF.GenerationSoftware,KiCad,Pcbnew,10.0.1*%
%TF.CreationDate,2026-09-20T14:16:59+05:30*%
%TF.ProjectId,Illuminati,496c6c75-6d69-46e6-9174-692e6b696361,rev?*%
%TF.SameCoordinates,Original*%
%TF.FileFunction,Paste,Top*%
%TF.FilePolarity,Positive*%
%FSLAX46Y46*%
G04 Gerber Fmt 4.6, Leading zero omitted, Abs format (unit mm)*
G04 Created by KiCad (PCBNEW 10.0.1) date 2026-09-20 14:16:59*
%MOMM*%
%LPD*%
G01*
G04 APERTURE LIST*
G04 Aperture macros list*
%AMRoundRect*
0 Rectangle with rounded corners*
0 $1 Rounding radius*
0 $2 $3 $4 $5 $6 $7 $8 $9 X,Y pos of 4 corners*
0 Add a 4 corners polygon primitive as box body*
4,1,4,$2,$3,$4,$5,$6,$7,$8,$9,$2,$3,0*
0 Add four circle primitives for the rounded corners*
1,1,$1+$1,$2,$3*
1,1,$1+$1,$4,$5*
1,1,$1+$1,$6,$7*
1,1,$1+$1,$8,$9*
0 Add four rect primitives between the rounded corners*
20,1,$1+$1,$2,$3,$4,$5,0*
20,1,$1+$1,$4,$5,$6,$7,0*
20,1,$1+$1,$6,$7,$8,$9,0*
20,1,$1+$1,$8,$9,$2,$3,0*%
%AMHorizOval*
0 Thick line with rounded ends*
0 $1 width*
0 $2 $3 position (X,Y) of the first rounded end (center of the circle)*
0 $4 $5 position (X,Y) of the second rounded end (center of the circle)*
0 Add line between two ends*
20,1,$1,$2,$3,$4,$5,0*
0 Add two circle primitives to create the rounded ends*
1,1,$1,$2,$3*
1,1,$1,$4,$5*%
G04 Aperture macros list end*
%ADD10RoundRect,0.140000X0.219203X0.021213X0.021213X0.219203X-0.219203X-0.021213X-0.021213X-0.219203X0*%
%ADD11RoundRect,0.135000X-0.226274X-0.035355X-0.035355X-0.226274X0.226274X0.035355X0.035355X0.226274X0*%
%ADD12R,1.000000X0.600000*%
%ADD13RoundRect,0.135000X0.185000X-0.135000X0.185000X0.135000X-0.185000X0.135000X-0.185000X-0.135000X0*%
%ADD14RoundRect,0.135000X-0.185000X0.135000X-0.185000X-0.135000X0.185000X-0.135000X0.185000X0.135000X0*%
%ADD15RoundRect,0.140000X-0.170000X0.140000X-0.170000X-0.140000X0.170000X-0.140000X0.170000X0.140000X0*%
%ADD16R,1.500000X1.000000*%
%ADD17RoundRect,0.135000X-0.035355X0.226274X-0.226274X0.035355X0.035355X-0.226274X0.226274X-0.035355X0*%
%ADD18RoundRect,0.249999X0.558616X0.000000X0.000000X0.558616X-0.558616X0.000000X0.000000X-0.558616X0*%
%ADD19RoundRect,0.050000X0.309359X-0.238649X-0.238649X0.309359X-0.309359X0.238649X0.238649X-0.309359X0*%
%ADD20RoundRect,0.050000X0.309359X0.238649X0.238649X0.309359X-0.309359X-0.238649X-0.238649X-0.309359X0*%
%ADD21RoundRect,0.135000X-0.135000X-0.185000X0.135000X-0.185000X0.135000X0.185000X-0.135000X0.185000X0*%
%ADD22HorizOval,0.630000X-0.572756X0.572756X0.572756X-0.572756X0*%
%ADD23RoundRect,0.140000X0.170000X-0.140000X0.170000X0.140000X-0.170000X0.140000X-0.170000X-0.140000X0*%
%ADD24RoundRect,0.112500X0.187500X0.112500X-0.187500X0.112500X-0.187500X-0.112500X0.187500X-0.112500X0*%
%ADD25RoundRect,0.150000X-0.150000X0.512500X-0.150000X-0.512500X0.150000X-0.512500X0.150000X0.512500X0*%
%ADD26RoundRect,0.150000X-0.150000X-0.425000X0.150000X-0.425000X0.150000X0.425000X-0.150000X0.425000X0*%
%ADD27RoundRect,0.075000X-0.075000X-0.500000X0.075000X-0.500000X0.075000X0.500000X-0.075000X0.500000X0*%
%ADD28O,1.000000X2.100000*%
%ADD29O,1.000000X1.800000*%
%ADD30RoundRect,0.250000X0.525000X0.250000X-0.525000X0.250000X-0.525000X-0.250000X0.525000X-0.250000X0*%
%ADD31RoundRect,0.140000X0.021213X-0.219203X0.219203X-0.021213X-0.021213X0.219203X-0.219203X0.021213X0*%
%ADD32R,2.000000X1.000000*%
%ADD33R,1.000000X2.000000*%
%ADD34RoundRect,0.140000X-0.021213X0.219203X-0.219203X0.021213X0.021213X-0.219203X0.219203X-0.021213X0*%
%ADD35RoundRect,0.087500X0.070711X0.194454X-0.194454X-0.070711X-0.070711X-0.194454X0.194454X0.070711X0*%
%ADD36RoundRect,0.087500X-0.070711X0.194454X-0.194454X0.070711X0.070711X-0.194454X0.194454X-0.070711X0*%
%ADD37RoundRect,0.250000X0.070711X0.565685X-0.565685X-0.070711X-0.070711X-0.565685X0.565685X0.070711X0*%
%ADD38RoundRect,0.140000X-0.219203X-0.021213X-0.021213X-0.219203X0.219203X0.021213X0.021213X0.219203X0*%
%ADD39RoundRect,0.135000X0.226274X0.035355X0.035355X0.226274X-0.226274X-0.035355X-0.035355X-0.226274X0*%
%ADD40RoundRect,0.135000X0.035355X-0.226274X0.226274X-0.035355X-0.035355X0.226274X-0.226274X0.035355X0*%
%ADD41RoundRect,0.225000X-0.335876X-0.017678X-0.017678X-0.335876X0.335876X0.017678X0.017678X0.335876X0*%
%ADD42RoundRect,0.218750X0.026517X-0.335876X0.335876X-0.026517X-0.026517X0.335876X-0.335876X0.026517X0*%
%ADD43RoundRect,0.150000X-0.256326X-0.468458X0.468458X0.256326X0.256326X0.468458X-0.468458X-0.256326X0*%
G04 APERTURE END LIST*
D10*
%TO.C,C21*%
X87551000Y-100536000D03*
X86872178Y-99857178D03*
%TD*%
D11*
%TO.C,R10*%
X91802072Y-102313752D03*
X92523320Y-103035000D03*
%TD*%
D12*
%TO.C,D3*%
X159925000Y-118207000D03*
X159925000Y-119507000D03*
X161925000Y-119507000D03*
X161925000Y-118207000D03*
%TD*%
D13*
%TO.C,R1*%
X96139000Y-122428000D03*
X96139000Y-121408000D03*
%TD*%
D14*
%TO.C,R4*%
X103251000Y-115439000D03*
X103251000Y-116459000D03*
%TD*%
D15*
%TO.C,C4*%
X84201000Y-122484000D03*
X84201000Y-123444000D03*
%TD*%
D16*
%TO.C,SW1*%
X96200000Y-119500000D03*
X96200000Y-117800000D03*
X101400000Y-119500000D03*
X101400000Y-117800000D03*
%TD*%
D17*
%TO.C,R11*%
X98404624Y-95417752D03*
X97683376Y-96139000D03*
%TD*%
D18*
%TO.C,U1*%
X89148747Y-107886585D03*
X90280118Y-106755214D03*
X88017376Y-106755214D03*
X89148747Y-105623843D03*
D19*
X89740949Y-111024371D03*
X90023792Y-110741528D03*
X90306634Y-110458686D03*
X90589477Y-110175843D03*
X90872320Y-109893000D03*
X91155162Y-109610158D03*
X91438005Y-109327315D03*
X91720848Y-109044472D03*
X92003691Y-108761629D03*
X92286533Y-108478787D03*
X92569376Y-108195944D03*
X92852219Y-107913101D03*
X93135061Y-107630259D03*
X93417904Y-107347416D03*
D20*
X93417904Y-106163012D03*
X93135061Y-105880169D03*
X92852219Y-105597327D03*
X92569376Y-105314484D03*
X92286533Y-105031641D03*
X92003691Y-104748799D03*
X91720848Y-104465956D03*
X91438005Y-104183113D03*
X91155162Y-103900270D03*
X90872320Y-103617428D03*
X90589477Y-103334585D03*
X90306634Y-103051742D03*
X90023792Y-102768900D03*
X89740949Y-102486057D03*
D19*
X88556545Y-102486057D03*
X88273702Y-102768900D03*
X87990860Y-103051742D03*
X87708017Y-103334585D03*
X87425174Y-103617428D03*
X87142332Y-103900270D03*
X86859489Y-104183113D03*
X86576646Y-104465956D03*
X86293803Y-104748799D03*
X86010961Y-105031641D03*
X85728118Y-105314484D03*
X85445275Y-105597327D03*
X85162433Y-105880169D03*
X84879590Y-106163012D03*
D20*
X84879590Y-107347416D03*
X85162433Y-107630259D03*
X85445275Y-107913101D03*
X85728118Y-108195944D03*
X86010961Y-108478787D03*
X86293803Y-108761629D03*
X86576646Y-109044472D03*
X86859489Y-109327315D03*
X87142332Y-109610158D03*
X87425174Y-109893000D03*
X87708017Y-110175843D03*
X87990860Y-110458686D03*
X88273702Y-110741528D03*
X88556545Y-111024371D03*
%TD*%
D21*
%TO.C,R9*%
X129030000Y-80772000D03*
X130050000Y-80772000D03*
%TD*%
D22*
%TO.C,U2*%
X88727584Y-121189590D03*
X89625610Y-120291564D03*
X90516564Y-119400610D03*
X91414590Y-118502584D03*
X86422416Y-113510410D03*
X85524390Y-114408436D03*
X84633436Y-115299390D03*
X83735410Y-116197416D03*
%TD*%
D23*
%TO.C,C1*%
X157607000Y-116558000D03*
X157607000Y-115598000D03*
%TD*%
%TO.C,C10*%
X140335000Y-78585000D03*
X140335000Y-77625000D03*
%TD*%
D15*
%TO.C,C6*%
X82296000Y-116261000D03*
X82296000Y-117221000D03*
%TD*%
D23*
%TO.C,C8*%
X141605000Y-78613000D03*
X141605000Y-77653000D03*
%TD*%
D24*
%TO.C,D1*%
X78915498Y-119046000D03*
X76815498Y-119046000D03*
%TD*%
D10*
%TO.C,C20*%
X83301000Y-104736000D03*
X82622178Y-104057178D03*
%TD*%
D25*
%TO.C,U4*%
X82300000Y-121059000D03*
X81350000Y-121059000D03*
X80400000Y-121059000D03*
X80400000Y-123334000D03*
X82300000Y-123334000D03*
%TD*%
D11*
%TO.C,R13*%
X92877752Y-91607752D03*
X93599000Y-92329000D03*
%TD*%
D26*
%TO.C,J2*%
X66920498Y-120895000D03*
X67720498Y-120895000D03*
D27*
X68870498Y-120895000D03*
X69870498Y-120895000D03*
X70370498Y-120895000D03*
X71370498Y-120895000D03*
D26*
X72520498Y-120895000D03*
X73320498Y-120895000D03*
X73320498Y-120895000D03*
X72520498Y-120895000D03*
D27*
X71870498Y-120895000D03*
X70870498Y-120895000D03*
X69370498Y-120895000D03*
X68370498Y-120895000D03*
D26*
X67720498Y-120895000D03*
X66920498Y-120895000D03*
D28*
X65800498Y-121470000D03*
D29*
X65800498Y-125650000D03*
D28*
X74440498Y-121470000D03*
D29*
X74440498Y-125650000D03*
%TD*%
D10*
%TO.C,C18*%
X85101000Y-103036000D03*
X84422178Y-102357178D03*
%TD*%
%TO.C,C19*%
X85901000Y-102186000D03*
X85222178Y-101507178D03*
%TD*%
D13*
%TO.C,R5*%
X68213498Y-119173000D03*
X68213498Y-118153000D03*
%TD*%
D30*
%TO.C,SW4*%
X126550000Y-121100000D03*
X121300000Y-121100000D03*
X126550000Y-117900000D03*
X121300000Y-117900000D03*
%TD*%
D14*
%TO.C,R8*%
X122936000Y-75053000D03*
X122936000Y-76073000D03*
%TD*%
D23*
%TO.C,C5*%
X136144000Y-82141000D03*
X136144000Y-81181000D03*
%TD*%
D31*
%TO.C,C11*%
X92818909Y-101342411D03*
X93497731Y-100663589D03*
%TD*%
D32*
%TO.C,U3*%
X124950000Y-68450000D03*
X124950000Y-69950000D03*
X124950000Y-71450000D03*
X124950000Y-72950000D03*
X124950000Y-74450000D03*
X124950000Y-75950000D03*
X124950000Y-77450000D03*
D33*
X127200000Y-78750000D03*
X128700000Y-78750000D03*
X130200000Y-78750000D03*
X131700000Y-78750000D03*
X133200000Y-78750000D03*
X134700000Y-78750000D03*
X136200000Y-78750000D03*
D32*
X138450000Y-77450000D03*
X138450000Y-75950000D03*
X138450000Y-74450000D03*
X138450000Y-72950000D03*
X138450000Y-71450000D03*
X138450000Y-69950000D03*
X138450000Y-68450000D03*
%TD*%
D34*
%TO.C,C9*%
X97748411Y-103673589D03*
X97069589Y-104352411D03*
%TD*%
D35*
%TO.C,U6*%
X102334554Y-96365553D03*
X101981000Y-96012000D03*
X101627447Y-95658446D03*
X101273893Y-95304893D03*
X100920340Y-94951339D03*
D36*
X100248589Y-95304893D03*
X99895035Y-95658446D03*
X99541482Y-96012000D03*
D35*
X99187928Y-96683751D03*
X99541482Y-97037304D03*
X99895035Y-97390858D03*
X100248589Y-97744411D03*
X100602142Y-98097965D03*
D36*
X101273893Y-97744411D03*
X101627447Y-97390858D03*
X101981000Y-97037304D03*
%TD*%
D15*
%TO.C,C3*%
X158623000Y-115598000D03*
X158623000Y-116558000D03*
%TD*%
D37*
%TO.C,X1*%
X95983955Y-100971365D03*
X94428320Y-102527000D03*
X95630401Y-103729081D03*
X97186036Y-102173446D03*
%TD*%
D38*
%TO.C,C24*%
X102911589Y-98085589D03*
X103590411Y-98764411D03*
%TD*%
%TO.C,C25*%
X103759000Y-97409000D03*
X104437822Y-98087822D03*
%TD*%
D10*
%TO.C,C16*%
X82451000Y-105586000D03*
X81772178Y-104907178D03*
%TD*%
D17*
%TO.C,R7*%
X81407000Y-107188000D03*
X80685752Y-107909248D03*
%TD*%
D12*
%TO.C,D2*%
X153099000Y-118207000D03*
X153099000Y-119507000D03*
X155099000Y-119507000D03*
X155099000Y-118207000D03*
%TD*%
D39*
%TO.C,R12*%
X95229624Y-93832624D03*
X94508376Y-93111376D03*
%TD*%
D40*
%TO.C,R2*%
X75108192Y-114629809D03*
X75829440Y-113908561D03*
%TD*%
D41*
%TO.C,C23*%
X102113395Y-99192395D03*
X103209411Y-100288411D03*
%TD*%
D14*
%TO.C,R3*%
X91059000Y-122299000D03*
X91059000Y-123319000D03*
%TD*%
D31*
%TO.C,C7*%
X80982178Y-118915822D03*
X81661000Y-118237000D03*
%TD*%
D15*
%TO.C,C22*%
X85344000Y-122484000D03*
X85344000Y-123444000D03*
%TD*%
D10*
%TO.C,C17*%
X86740411Y-101325411D03*
X86061589Y-100646589D03*
%TD*%
%TO.C,C13*%
X84000000Y-108328822D03*
X83321178Y-107650000D03*
%TD*%
D21*
%TO.C,R6*%
X74190000Y-118400000D03*
X75210000Y-118400000D03*
%TD*%
D30*
%TO.C,SW5*%
X135550000Y-121100000D03*
X130300000Y-121100000D03*
X135550000Y-117900000D03*
X130300000Y-117900000D03*
%TD*%
D34*
%TO.C,C14*%
X85589411Y-110060589D03*
X84910589Y-110739411D03*
%TD*%
D15*
%TO.C,C2*%
X156464000Y-115598000D03*
X156464000Y-116558000D03*
%TD*%
D10*
%TO.C,C12*%
X82950000Y-108839411D03*
X82271178Y-108160589D03*
%TD*%
D30*
%TO.C,SW3*%
X144550000Y-121100000D03*
X139300000Y-121100000D03*
X144550000Y-117900000D03*
X139300000Y-117900000D03*
%TD*%
D42*
%TO.C,D5*%
X77724000Y-110109000D03*
X78837694Y-108995306D03*
%TD*%
%TO.C,D4*%
X75340306Y-112492694D03*
X76454000Y-111379000D03*
%TD*%
D43*
%TO.C,U5*%
X77692830Y-113803166D03*
X78364581Y-114474917D03*
X79036332Y-115146668D03*
X80645000Y-113538000D03*
X79973249Y-112866249D03*
X79301498Y-112194498D03*
%TD*%
D10*
%TO.C,C15*%
X84201000Y-103886000D03*
X83522178Y-103207178D03*
%TD*%
D16*
%TO.C,SW2*%
X110000000Y-117700000D03*
X110000000Y-119400000D03*
X104800000Y-117700000D03*
X104800000Y-119400000D03*
%TD*%
M02*
