%TF.GenerationSoftware,KiCad,Pcbnew,10.0.1*%
%TF.CreationDate,2026-09-20T14:16:59+05:30*%
%TF.ProjectId,Illuminati,496c6c75-6d69-46e6-9174-692e6b696361,rev?*%
%TF.SameCoordinates,Original*%
%TF.FileFunction,Copper,L2,Bot*%
%TF.FilePolarity,Positive*%
%FSLAX46Y46*%
G04 Gerber Fmt 4.6, Leading zero omitted, Abs format (unit mm)*
G04 Created by KiCad (PCBNEW 10.0.1) date 2026-09-20 14:16:59*
%MOMM*%
%LPD*%
G01*
G04 APERTURE LIST*
%TA.AperFunction,ComponentPad*%
%ADD10O,1.000000X2.100000*%
%TD*%
%TA.AperFunction,ComponentPad*%
%ADD11O,1.000000X1.800000*%
%TD*%
%TA.AperFunction,ComponentPad*%
%ADD12R,0.850000X0.850000*%
%TD*%
%TA.AperFunction,ComponentPad*%
%ADD13C,0.850000*%
%TD*%
%TA.AperFunction,ViaPad*%
%ADD14C,0.600000*%
%TD*%
%TA.AperFunction,Conductor*%
%ADD15C,0.150000*%
%TD*%
G04 APERTURE END LIST*
D10*
%TO.P,J2,SH,SHIELD_SH*%
%TO.N,GND*%
X65800498Y-121470000D03*
D11*
X65800498Y-125650000D03*
D10*
X74440498Y-121470000D03*
D11*
X74440498Y-125650000D03*
%TD*%
D12*
%TO.P,J1,1,Pin_1_1*%
%TO.N,GND*%
X124050000Y-107175000D03*
D13*
%TO.P,J1,2,Pin_2_2*%
%TO.N,+3.3V*%
X125050000Y-107175000D03*
%TO.P,J1,3,Pin_3_3*%
%TO.N,GND*%
X126050000Y-107175000D03*
%TO.P,J1,4,Pin_4_4*%
X127050000Y-107175000D03*
%TO.P,J1,5,Pin_5_5*%
%TO.N,/GP12*%
X128050000Y-107175000D03*
%TO.P,J1,6,Pin_6_6*%
%TO.N,/GP11*%
X129050000Y-107175000D03*
%TO.P,J1,7,Pin_7_7*%
%TO.N,/GP10*%
X130050000Y-107175000D03*
%TO.P,J1,8,Pin_8_8*%
%TO.N,/GP9*%
X131050000Y-107175000D03*
%TO.P,J1,9,Pin_9_9*%
%TO.N,/GP8*%
X132050000Y-107175000D03*
%TO.P,J1,10,Pin_10_10*%
%TO.N,/GP7*%
X133050000Y-107175000D03*
%TO.P,J1,11,Pin_11_11*%
%TO.N,/GP6*%
X134050000Y-107175000D03*
%TO.P,J1,12,Pin_12_12*%
%TO.N,/GP5*%
X135050000Y-107175000D03*
%TO.P,J1,13,Pin_13_13*%
%TO.N,+3.3V*%
X136050000Y-107175000D03*
%TO.P,J1,14,Pin_14_14*%
%TO.N,/GP3*%
X137050000Y-107175000D03*
%TO.P,J1,15,Pin_15_15*%
%TO.N,/GP2*%
X138050000Y-107175000D03*
%TO.P,J1,16,Pin_16_16*%
%TO.N,/GP1*%
X139050000Y-107175000D03*
%TO.P,J1,17,Pin_17_17*%
%TO.N,/GP0*%
X140050000Y-107175000D03*
%TD*%
D14*
%TO.N,+3.3V*%
X88011000Y-99187000D03*
X93345000Y-90678000D03*
X160528000Y-115062000D03*
X86711033Y-107927757D03*
X103124000Y-118237000D03*
X92052069Y-107431580D03*
X95885000Y-93091000D03*
X86487000Y-122428000D03*
X103759000Y-95504000D03*
X73853784Y-114986191D03*
X80772000Y-117729000D03*
X83185000Y-106553000D03*
X90551000Y-112395000D03*
X142000000Y-76500000D03*
%TO.N,GND*%
X121285000Y-77851000D03*
X141986000Y-69977000D03*
X113030000Y-73787000D03*
X72390000Y-118237000D03*
X97917000Y-105156000D03*
X81026000Y-109728000D03*
X89916000Y-108712000D03*
X118999000Y-69850000D03*
X83947000Y-121285000D03*
X83058000Y-112268000D03*
X99187000Y-99314000D03*
X100746482Y-95832304D03*
%TO.N,RUN*%
X102108000Y-115443000D03*
X90245836Y-104953164D03*
%TO.N,SPI_CS*%
X93600000Y-121350000D03*
X89850000Y-113050000D03*
%TO.N,/GP4*%
X150622000Y-117475000D03*
X133223000Y-110109000D03*
%TO.N,/GP13*%
X95500000Y-107000000D03*
X116425000Y-114500000D03*
%TO.N,/GP14*%
X96500000Y-107000000D03*
X122925000Y-113500000D03*
%TO.N,/GP15*%
X96500000Y-106000000D03*
X124500000Y-112500000D03*
%TO.N,+1V1*%
X86420942Y-106867942D03*
X91230709Y-105795706D03*
%TO.N,/GP18*%
X118237000Y-79248000D03*
X127889000Y-81026000D03*
%TO.N,/GP20*%
X95884999Y-92074999D03*
X98933000Y-94615000D03*
%TO.N,/GP21*%
X99822000Y-93726000D03*
X96520000Y-91440000D03*
%TO.N,/GP22*%
X97536000Y-97155000D03*
X88522934Y-103937727D03*
%TO.N,/GP23*%
X87884000Y-104775000D03*
X97663000Y-97917000D03*
%TO.N,SPI_SD1*%
X89350000Y-113900000D03*
X92050000Y-121125000D03*
X92050000Y-121125000D03*
%TD*%
%TO.N,+3.3V*%
D15*
X123886040Y-105410000D02*
X123190000Y-105410000D01*
X125050000Y-106573960D02*
X123886040Y-105410000D01*
X136050000Y-107175000D02*
X134666000Y-105791000D01*
X125050000Y-107175000D02*
X125050000Y-106573960D01*
X134666000Y-105791000D02*
X133858000Y-105791000D01*
%TO.N,GND*%
X99187000Y-97391786D02*
X99187000Y-99314000D01*
X113411000Y-73787000D02*
X113030000Y-73787000D01*
X117475000Y-77851000D02*
X113411000Y-73787000D01*
X89916000Y-108712000D02*
X86360000Y-112268000D01*
X121285000Y-77851000D02*
X117475000Y-77851000D01*
X100746482Y-95832304D02*
X99187000Y-97391786D01*
X81026000Y-110236000D02*
X81026000Y-109728000D01*
X83058000Y-112268000D02*
X81026000Y-110236000D01*
X72390000Y-119419502D02*
X72390000Y-118237000D01*
X74440498Y-121470000D02*
X72390000Y-119419502D01*
X86360000Y-112268000D02*
X83058000Y-112268000D01*
%TO.N,RUN*%
X102108000Y-115443000D02*
X91618164Y-104953164D01*
X91618164Y-104953164D02*
X90245836Y-104953164D01*
%TO.N,SPI_CS*%
X89875000Y-113075000D02*
X89850000Y-113050000D01*
X89850000Y-118025000D02*
X89875000Y-118000000D01*
X93600000Y-121350000D02*
X93175000Y-121350000D01*
X89875000Y-118000000D02*
X89875000Y-113075000D01*
X93175000Y-121350000D02*
X89850000Y-118025000D01*
%TO.N,/GP4*%
X133223000Y-110109000D02*
X139192000Y-116078000D01*
X149225000Y-116078000D02*
X150622000Y-117475000D01*
X139192000Y-116078000D02*
X149225000Y-116078000D01*
%TO.N,/GP13*%
X95500000Y-107000000D02*
X103000000Y-114500000D01*
X103000000Y-114500000D02*
X116425000Y-114500000D01*
%TO.N,/GP14*%
X96500000Y-107000000D02*
X103000000Y-113500000D01*
X103000000Y-113500000D02*
X122925000Y-113500000D01*
%TO.N,/GP15*%
X96500000Y-106000000D02*
X103000000Y-112500000D01*
X103000000Y-112500000D02*
X124500000Y-112500000D01*
%TO.N,+1V1*%
X91230709Y-105795706D02*
X87493178Y-105795706D01*
X87493178Y-105795706D02*
X86420942Y-106867942D01*
%TO.N,/GP18*%
X118237000Y-79248000D02*
X126111000Y-79248000D01*
X126111000Y-79248000D02*
X127889000Y-81026000D01*
%TO.N,/GP20*%
X98933000Y-94615000D02*
X98425000Y-94615000D01*
X98425000Y-94615000D02*
X95884999Y-92074999D01*
%TO.N,/GP21*%
X99822000Y-93726000D02*
X98806000Y-93726000D01*
X98806000Y-93726000D02*
X96520000Y-91440000D01*
%TO.N,/GP22*%
X95305661Y-97155000D02*
X88522934Y-103937727D01*
X97536000Y-97155000D02*
X95305661Y-97155000D01*
%TO.N,/GP23*%
X87884000Y-104775000D02*
X89662000Y-104775000D01*
X96647000Y-97790000D02*
X97536000Y-97790000D01*
X89662000Y-104775000D02*
X96647000Y-97790000D01*
X97536000Y-97790000D02*
X97663000Y-97917000D01*
%TO.N,SPI_SD1*%
X89350000Y-118425000D02*
X92050000Y-121125000D01*
X89350000Y-113900000D02*
X89350000Y-118425000D01*
%TD*%
%TA.AperFunction,Conductor*%
%TO.N,+3.3V*%
G36*
X150129677Y-67964685D02*
G01*
X150150319Y-67981319D01*
X207687319Y-125518319D01*
X207720804Y-125579642D01*
X207715820Y-125649334D01*
X207673948Y-125705267D01*
X207608484Y-125729684D01*
X207599638Y-125730000D01*
X75564998Y-125730000D01*
X75497959Y-125710315D01*
X75452204Y-125657511D01*
X75440998Y-125606000D01*
X75440998Y-125151456D01*
X75402550Y-124958170D01*
X75402549Y-124958169D01*
X75402549Y-124958165D01*
X75402547Y-124958160D01*
X75327133Y-124776092D01*
X75327126Y-124776079D01*
X75217637Y-124612218D01*
X75217634Y-124612214D01*
X75078283Y-124472863D01*
X75078279Y-124472860D01*
X74914418Y-124363371D01*
X74914405Y-124363364D01*
X74732337Y-124287950D01*
X74732327Y-124287947D01*
X74539041Y-124249500D01*
X74539039Y-124249500D01*
X74341957Y-124249500D01*
X74341955Y-124249500D01*
X74148668Y-124287947D01*
X74148658Y-124287950D01*
X73966590Y-124363364D01*
X73966577Y-124363371D01*
X73802716Y-124472860D01*
X73802712Y-124472863D01*
X73663361Y-124612214D01*
X73663358Y-124612218D01*
X73553869Y-124776079D01*
X73553862Y-124776092D01*
X73478448Y-124958160D01*
X73478445Y-124958170D01*
X73439998Y-125151456D01*
X73439998Y-125606000D01*
X73420313Y-125673039D01*
X73367509Y-125718794D01*
X73315998Y-125730000D01*
X66924998Y-125730000D01*
X66857959Y-125710315D01*
X66812204Y-125657511D01*
X66800998Y-125606000D01*
X66800998Y-125151456D01*
X66762550Y-124958170D01*
X66762549Y-124958169D01*
X66762549Y-124958165D01*
X66762547Y-124958160D01*
X66687133Y-124776092D01*
X66687126Y-124776079D01*
X66577637Y-124612218D01*
X66577634Y-124612214D01*
X66438283Y-124472863D01*
X66438279Y-124472860D01*
X66274418Y-124363371D01*
X66274405Y-124363364D01*
X66092337Y-124287950D01*
X66092327Y-124287947D01*
X65899041Y-124249500D01*
X65899039Y-124249500D01*
X65701957Y-124249500D01*
X65701955Y-124249500D01*
X65508668Y-124287947D01*
X65508658Y-124287950D01*
X65326590Y-124363364D01*
X65326577Y-124363371D01*
X65162716Y-124472860D01*
X65162712Y-124472863D01*
X65023361Y-124612214D01*
X65023358Y-124612218D01*
X64913869Y-124776079D01*
X64913862Y-124776092D01*
X64838448Y-124958160D01*
X64838445Y-124958170D01*
X64799998Y-125151456D01*
X64799998Y-125606000D01*
X64780313Y-125673039D01*
X64727509Y-125718794D01*
X64675998Y-125730000D01*
X54909362Y-125730000D01*
X54842323Y-125710315D01*
X54796568Y-125657511D01*
X54786624Y-125588353D01*
X54815649Y-125524797D01*
X54821681Y-125518319D01*
X58221457Y-122118543D01*
X64799997Y-122118543D01*
X64838445Y-122311829D01*
X64838448Y-122311839D01*
X64913862Y-122493907D01*
X64913869Y-122493920D01*
X65023358Y-122657781D01*
X65023361Y-122657785D01*
X65162712Y-122797136D01*
X65162716Y-122797139D01*
X65326577Y-122906628D01*
X65326590Y-122906635D01*
X65508658Y-122982049D01*
X65508663Y-122982051D01*
X65508667Y-122982051D01*
X65508668Y-122982052D01*
X65701954Y-123020500D01*
X65701957Y-123020500D01*
X65899041Y-123020500D01*
X66029080Y-122994632D01*
X66092333Y-122982051D01*
X66274412Y-122906632D01*
X66438280Y-122797139D01*
X66577637Y-122657782D01*
X66687130Y-122493914D01*
X66691038Y-122484478D01*
X66734874Y-122430074D01*
X66801167Y-122408004D01*
X66868867Y-122425279D01*
X66873526Y-122428432D01*
X66877131Y-122430513D01*
X66877133Y-122430515D01*
X67008363Y-122506281D01*
X67154732Y-122545500D01*
X67154734Y-122545500D01*
X67306262Y-122545500D01*
X67306264Y-122545500D01*
X67452633Y-122506281D01*
X67583863Y-122430515D01*
X67691013Y-122323365D01*
X67766779Y-122192135D01*
X67805998Y-122045766D01*
X67805998Y-121894234D01*
X67766779Y-121747865D01*
X67691013Y-121616635D01*
X67583863Y-121509485D01*
X67500585Y-121461404D01*
X67452634Y-121433719D01*
X67348082Y-121405705D01*
X67306264Y-121394500D01*
X67154732Y-121394500D01*
X67008360Y-121433719D01*
X66986997Y-121446054D01*
X66919096Y-121462525D01*
X66853070Y-121439673D01*
X66809880Y-121384751D01*
X66800998Y-121338666D01*
X66800998Y-120821456D01*
X66762550Y-120628170D01*
X66762549Y-120628169D01*
X66762549Y-120628165D01*
X66742708Y-120580264D01*
X66687133Y-120446092D01*
X66687126Y-120446079D01*
X66577637Y-120282218D01*
X66577634Y-120282214D01*
X66438283Y-120142863D01*
X66438279Y-120142860D01*
X66274418Y-120033371D01*
X66274405Y-120033364D01*
X66092337Y-119957950D01*
X66092327Y-119957947D01*
X65899041Y-119919500D01*
X65899039Y-119919500D01*
X65701957Y-119919500D01*
X65701955Y-119919500D01*
X65508668Y-119957947D01*
X65508658Y-119957950D01*
X65326590Y-120033364D01*
X65326577Y-120033371D01*
X65162716Y-120142860D01*
X65162712Y-120142863D01*
X65023361Y-120282214D01*
X65023358Y-120282218D01*
X64913869Y-120446079D01*
X64913862Y-120446092D01*
X64838448Y-120628160D01*
X64838445Y-120628170D01*
X64799998Y-120821456D01*
X64799998Y-120821459D01*
X64799998Y-122118541D01*
X64799998Y-122118543D01*
X64799997Y-122118543D01*
X58221457Y-122118543D01*
X62181847Y-118158153D01*
X71589500Y-118158153D01*
X71589500Y-118315846D01*
X71620261Y-118470489D01*
X71620264Y-118470501D01*
X71680602Y-118616172D01*
X71680609Y-118616185D01*
X71768210Y-118747288D01*
X71768212Y-118747291D01*
X71778178Y-118757256D01*
X71811665Y-118818578D01*
X71814500Y-118844940D01*
X71814500Y-119495267D01*
X71853719Y-119641638D01*
X71891602Y-119707252D01*
X71929485Y-119772867D01*
X71929487Y-119772869D01*
X73403679Y-121247061D01*
X73418382Y-121273988D01*
X73434975Y-121299807D01*
X73435866Y-121306007D01*
X73437164Y-121308384D01*
X73439998Y-121334742D01*
X73439998Y-121338666D01*
X73420313Y-121405705D01*
X73367509Y-121451460D01*
X73298351Y-121461404D01*
X73253999Y-121446054D01*
X73232635Y-121433719D01*
X73128082Y-121405705D01*
X73086264Y-121394500D01*
X72934732Y-121394500D01*
X72788361Y-121433719D01*
X72657133Y-121509485D01*
X72657130Y-121509487D01*
X72549985Y-121616632D01*
X72549983Y-121616635D01*
X72474217Y-121747863D01*
X72461510Y-121795288D01*
X72434998Y-121894234D01*
X72434998Y-122045766D01*
X72445644Y-122085499D01*
X72474217Y-122192136D01*
X72512100Y-122257750D01*
X72549983Y-122323365D01*
X72657133Y-122430515D01*
X72788363Y-122506281D01*
X72934732Y-122545500D01*
X72934734Y-122545500D01*
X73086262Y-122545500D01*
X73086264Y-122545500D01*
X73232633Y-122506281D01*
X73363863Y-122430515D01*
X73363864Y-122430513D01*
X73370901Y-122426451D01*
X73372247Y-122428783D01*
X73425051Y-122408357D01*
X73493499Y-122422381D01*
X73543499Y-122471185D01*
X73549956Y-122484474D01*
X73553865Y-122493913D01*
X73553869Y-122493920D01*
X73663358Y-122657781D01*
X73663361Y-122657785D01*
X73802712Y-122797136D01*
X73802716Y-122797139D01*
X73966577Y-122906628D01*
X73966590Y-122906635D01*
X74148658Y-122982049D01*
X74148663Y-122982051D01*
X74148667Y-122982051D01*
X74148668Y-122982052D01*
X74341954Y-123020500D01*
X74341957Y-123020500D01*
X74539041Y-123020500D01*
X74669080Y-122994632D01*
X74732333Y-122982051D01*
X74914412Y-122906632D01*
X75078280Y-122797139D01*
X75217637Y-122657782D01*
X75327130Y-122493914D01*
X75402549Y-122311835D01*
X75440760Y-122119737D01*
X75440998Y-122118543D01*
X75440998Y-121206153D01*
X83146500Y-121206153D01*
X83146500Y-121363846D01*
X83177261Y-121518489D01*
X83177264Y-121518501D01*
X83237602Y-121664172D01*
X83237609Y-121664185D01*
X83325210Y-121795288D01*
X83325213Y-121795292D01*
X83436707Y-121906786D01*
X83436711Y-121906789D01*
X83567814Y-121994390D01*
X83567827Y-121994397D01*
X83691845Y-122045766D01*
X83713503Y-122054737D01*
X83868153Y-122085499D01*
X83868156Y-122085500D01*
X83868158Y-122085500D01*
X84025844Y-122085500D01*
X84025845Y-122085499D01*
X84180497Y-122054737D01*
X84326179Y-121994394D01*
X84457289Y-121906789D01*
X84568789Y-121795289D01*
X84656394Y-121664179D01*
X84716737Y-121518497D01*
X84747500Y-121363842D01*
X84747500Y-121206158D01*
X84747500Y-121206155D01*
X84747499Y-121206153D01*
X84729665Y-121116498D01*
X84716737Y-121051503D01*
X84683315Y-120970814D01*
X84656397Y-120905827D01*
X84656390Y-120905814D01*
X84568789Y-120774711D01*
X84568786Y-120774707D01*
X84457292Y-120663213D01*
X84457288Y-120663210D01*
X84326185Y-120575609D01*
X84326172Y-120575602D01*
X84180501Y-120515264D01*
X84180489Y-120515261D01*
X84025845Y-120484500D01*
X84025842Y-120484500D01*
X83868158Y-120484500D01*
X83868155Y-120484500D01*
X83713510Y-120515261D01*
X83713498Y-120515264D01*
X83567827Y-120575602D01*
X83567814Y-120575609D01*
X83436711Y-120663210D01*
X83436707Y-120663213D01*
X83325213Y-120774707D01*
X83325210Y-120774711D01*
X83237609Y-120905814D01*
X83237602Y-120905827D01*
X83177264Y-121051498D01*
X83177261Y-121051510D01*
X83146500Y-121206153D01*
X75440998Y-121206153D01*
X75440998Y-120821456D01*
X75402550Y-120628170D01*
X75402549Y-120628169D01*
X75402549Y-120628165D01*
X75382708Y-120580264D01*
X75327133Y-120446092D01*
X75327126Y-120446079D01*
X75217637Y-120282218D01*
X75217634Y-120282214D01*
X75078283Y-120142863D01*
X75078279Y-120142860D01*
X74914418Y-120033371D01*
X74914405Y-120033364D01*
X74732337Y-119957950D01*
X74732327Y-119957947D01*
X74539041Y-119919500D01*
X74539039Y-119919500D01*
X74341957Y-119919500D01*
X74341955Y-119919500D01*
X74148668Y-119957947D01*
X74148658Y-119957950D01*
X73966591Y-120033364D01*
X73966572Y-120033374D01*
X73961963Y-120036454D01*
X73895283Y-120057325D01*
X73827905Y-120038832D01*
X73805403Y-120021025D01*
X73001819Y-119217441D01*
X72968334Y-119156118D01*
X72965500Y-119129760D01*
X72965500Y-118844940D01*
X72985185Y-118777901D01*
X73001822Y-118757256D01*
X73011787Y-118747291D01*
X73011789Y-118747289D01*
X73099394Y-118616179D01*
X73159737Y-118470497D01*
X73190500Y-118315842D01*
X73190500Y-118158158D01*
X73190500Y-118158155D01*
X73190499Y-118158153D01*
X73159738Y-118003510D01*
X73159737Y-118003503D01*
X73152192Y-117985288D01*
X73099397Y-117857827D01*
X73099390Y-117857814D01*
X73011789Y-117726711D01*
X73011786Y-117726707D01*
X72900292Y-117615213D01*
X72900288Y-117615210D01*
X72769185Y-117527609D01*
X72769172Y-117527602D01*
X72623501Y-117467264D01*
X72623489Y-117467261D01*
X72468845Y-117436500D01*
X72468842Y-117436500D01*
X72311158Y-117436500D01*
X72311155Y-117436500D01*
X72156510Y-117467261D01*
X72156498Y-117467264D01*
X72010827Y-117527602D01*
X72010814Y-117527609D01*
X71879711Y-117615210D01*
X71879707Y-117615213D01*
X71768213Y-117726707D01*
X71768210Y-117726711D01*
X71680609Y-117857814D01*
X71680602Y-117857827D01*
X71620264Y-118003498D01*
X71620261Y-118003510D01*
X71589500Y-118158153D01*
X62181847Y-118158153D01*
X66518847Y-113821153D01*
X88549500Y-113821153D01*
X88549500Y-113978846D01*
X88580261Y-114133489D01*
X88580264Y-114133501D01*
X88640602Y-114279172D01*
X88640609Y-114279185D01*
X88728210Y-114410288D01*
X88728212Y-114410291D01*
X88738178Y-114420256D01*
X88771665Y-114481578D01*
X88774500Y-114507940D01*
X88774500Y-118500765D01*
X88813719Y-118647136D01*
X88851602Y-118712750D01*
X88889485Y-118778365D01*
X88889487Y-118778367D01*
X91213181Y-121102061D01*
X91246666Y-121163384D01*
X91249500Y-121189742D01*
X91249500Y-121203846D01*
X91280261Y-121358489D01*
X91280264Y-121358501D01*
X91340602Y-121504172D01*
X91340609Y-121504185D01*
X91428210Y-121635288D01*
X91428213Y-121635292D01*
X91539707Y-121746786D01*
X91539711Y-121746789D01*
X91670814Y-121834390D01*
X91670827Y-121834397D01*
X91815293Y-121894236D01*
X91816503Y-121894737D01*
X91971153Y-121925499D01*
X91971156Y-121925500D01*
X91971158Y-121925500D01*
X92128844Y-121925500D01*
X92128845Y-121925499D01*
X92283497Y-121894737D01*
X92429179Y-121834394D01*
X92560289Y-121746789D01*
X92571415Y-121735663D01*
X92632737Y-121702176D01*
X92702429Y-121707158D01*
X92746780Y-121735660D01*
X92821635Y-121810515D01*
X92952865Y-121886281D01*
X92990899Y-121896471D01*
X93046488Y-121928566D01*
X93089707Y-121971786D01*
X93089711Y-121971789D01*
X93220814Y-122059390D01*
X93220827Y-122059397D01*
X93363620Y-122118543D01*
X93366503Y-122119737D01*
X93521153Y-122150499D01*
X93521156Y-122150500D01*
X93521158Y-122150500D01*
X93678844Y-122150500D01*
X93678845Y-122150499D01*
X93833497Y-122119737D01*
X93979179Y-122059394D01*
X94110289Y-121971789D01*
X94221789Y-121860289D01*
X94309394Y-121729179D01*
X94369737Y-121583497D01*
X94400500Y-121428842D01*
X94400500Y-121271158D01*
X94400500Y-121271155D01*
X94400499Y-121271153D01*
X94395707Y-121247061D01*
X94369737Y-121116503D01*
X94342816Y-121051510D01*
X94309397Y-120970827D01*
X94309390Y-120970814D01*
X94221789Y-120839711D01*
X94221786Y-120839707D01*
X94110292Y-120728213D01*
X94110288Y-120728210D01*
X93979185Y-120640609D01*
X93979172Y-120640602D01*
X93833501Y-120580264D01*
X93833489Y-120580261D01*
X93678845Y-120549500D01*
X93678842Y-120549500D01*
X93521158Y-120549500D01*
X93521155Y-120549500D01*
X93366505Y-120580261D01*
X93366497Y-120580264D01*
X93338847Y-120591717D01*
X93269378Y-120599184D01*
X93206899Y-120567908D01*
X93203716Y-120564836D01*
X90486819Y-117847939D01*
X90453334Y-117786616D01*
X90450500Y-117760258D01*
X90450500Y-113629765D01*
X90470185Y-113562726D01*
X90471398Y-113560874D01*
X90559390Y-113429185D01*
X90559390Y-113429184D01*
X90559394Y-113429179D01*
X90562719Y-113421153D01*
X90612694Y-113300500D01*
X90619737Y-113283497D01*
X90650500Y-113128842D01*
X90650500Y-112971158D01*
X90650500Y-112971155D01*
X90650499Y-112971153D01*
X90619737Y-112816503D01*
X90603910Y-112778292D01*
X90559397Y-112670827D01*
X90559390Y-112670814D01*
X90471789Y-112539711D01*
X90471786Y-112539707D01*
X90360292Y-112428213D01*
X90360288Y-112428210D01*
X90229185Y-112340609D01*
X90229172Y-112340602D01*
X90083501Y-112280264D01*
X90083489Y-112280261D01*
X89928845Y-112249500D01*
X89928842Y-112249500D01*
X89771158Y-112249500D01*
X89771155Y-112249500D01*
X89616510Y-112280261D01*
X89616498Y-112280264D01*
X89470827Y-112340602D01*
X89470814Y-112340609D01*
X89339711Y-112428210D01*
X89339707Y-112428213D01*
X89228213Y-112539707D01*
X89228210Y-112539711D01*
X89140609Y-112670814D01*
X89140602Y-112670827D01*
X89080264Y-112816498D01*
X89080261Y-112816510D01*
X89049500Y-112971153D01*
X89049500Y-113075161D01*
X89029815Y-113142200D01*
X88977011Y-113187955D01*
X88972962Y-113189718D01*
X88970830Y-113190601D01*
X88970814Y-113190609D01*
X88839711Y-113278210D01*
X88839707Y-113278213D01*
X88728213Y-113389707D01*
X88728210Y-113389711D01*
X88640609Y-113520814D01*
X88640602Y-113520827D01*
X88580264Y-113666498D01*
X88580261Y-113666510D01*
X88549500Y-113821153D01*
X66518847Y-113821153D01*
X70690847Y-109649153D01*
X80225500Y-109649153D01*
X80225500Y-109806846D01*
X80256261Y-109961489D01*
X80256264Y-109961501D01*
X80316602Y-110107172D01*
X80316609Y-110107185D01*
X80404210Y-110238288D01*
X80404213Y-110238292D01*
X80417054Y-110251133D01*
X80449148Y-110306720D01*
X80450500Y-110311765D01*
X80450500Y-110311766D01*
X80489719Y-110458135D01*
X80565485Y-110589365D01*
X80565487Y-110589367D01*
X82221181Y-112245061D01*
X82254666Y-112306384D01*
X82257500Y-112332742D01*
X82257500Y-112346846D01*
X82288261Y-112501489D01*
X82288264Y-112501501D01*
X82348602Y-112647172D01*
X82348609Y-112647185D01*
X82436210Y-112778288D01*
X82436213Y-112778292D01*
X82547707Y-112889786D01*
X82547711Y-112889789D01*
X82678814Y-112977390D01*
X82678827Y-112977397D01*
X82758237Y-113010289D01*
X82824503Y-113037737D01*
X82979153Y-113068499D01*
X82979156Y-113068500D01*
X82979158Y-113068500D01*
X83136844Y-113068500D01*
X83136845Y-113068499D01*
X83291497Y-113037737D01*
X83437179Y-112977394D01*
X83568289Y-112889789D01*
X83568292Y-112889786D01*
X83578260Y-112879819D01*
X83639583Y-112846334D01*
X83665941Y-112843500D01*
X86435764Y-112843500D01*
X86435766Y-112843500D01*
X86582135Y-112804281D01*
X86713365Y-112728515D01*
X89893061Y-109548819D01*
X89954384Y-109515334D01*
X89980742Y-109512500D01*
X89994844Y-109512500D01*
X89994845Y-109512499D01*
X90149497Y-109481737D01*
X90295179Y-109421394D01*
X90426289Y-109333789D01*
X90537789Y-109222289D01*
X90625394Y-109091179D01*
X90685737Y-108945497D01*
X90716500Y-108790842D01*
X90716500Y-108633158D01*
X90716500Y-108633155D01*
X90716499Y-108633153D01*
X90685738Y-108478510D01*
X90685737Y-108478503D01*
X90685735Y-108478498D01*
X90625397Y-108332827D01*
X90625390Y-108332814D01*
X90537789Y-108201711D01*
X90537786Y-108201707D01*
X90426292Y-108090213D01*
X90426288Y-108090210D01*
X90295185Y-108002609D01*
X90295172Y-108002602D01*
X90149501Y-107942264D01*
X90149489Y-107942261D01*
X89994845Y-107911500D01*
X89994842Y-107911500D01*
X89837158Y-107911500D01*
X89837155Y-107911500D01*
X89682510Y-107942261D01*
X89682498Y-107942264D01*
X89536827Y-108002602D01*
X89536814Y-108002609D01*
X89405711Y-108090210D01*
X89405707Y-108090213D01*
X89294213Y-108201707D01*
X89294210Y-108201711D01*
X89206609Y-108332814D01*
X89206602Y-108332827D01*
X89146264Y-108478498D01*
X89146261Y-108478510D01*
X89115500Y-108633153D01*
X89115500Y-108647258D01*
X89095815Y-108714297D01*
X89079181Y-108734939D01*
X86157939Y-111656181D01*
X86096616Y-111689666D01*
X86070258Y-111692500D01*
X83665941Y-111692500D01*
X83598902Y-111672815D01*
X83578260Y-111656181D01*
X83568292Y-111646213D01*
X83568288Y-111646210D01*
X83437185Y-111558609D01*
X83437172Y-111558602D01*
X83291501Y-111498264D01*
X83291489Y-111498261D01*
X83136845Y-111467500D01*
X83136842Y-111467500D01*
X83122742Y-111467500D01*
X83055703Y-111447815D01*
X83035061Y-111431181D01*
X81786852Y-110182972D01*
X81753367Y-110121649D01*
X81758351Y-110051957D01*
X81759932Y-110047936D01*
X81795737Y-109961497D01*
X81826500Y-109806842D01*
X81826500Y-109649158D01*
X81826500Y-109649155D01*
X81826499Y-109649153D01*
X81824935Y-109641288D01*
X81795737Y-109494503D01*
X81765456Y-109421397D01*
X81735397Y-109348827D01*
X81735390Y-109348814D01*
X81647789Y-109217711D01*
X81647786Y-109217707D01*
X81536292Y-109106213D01*
X81536288Y-109106210D01*
X81405185Y-109018609D01*
X81405172Y-109018602D01*
X81259501Y-108958264D01*
X81259489Y-108958261D01*
X81104845Y-108927500D01*
X81104842Y-108927500D01*
X80947158Y-108927500D01*
X80947155Y-108927500D01*
X80792510Y-108958261D01*
X80792498Y-108958264D01*
X80646827Y-109018602D01*
X80646814Y-109018609D01*
X80515711Y-109106210D01*
X80515707Y-109106213D01*
X80404213Y-109217707D01*
X80404210Y-109217711D01*
X80316609Y-109348814D01*
X80316602Y-109348827D01*
X80256264Y-109494498D01*
X80256261Y-109494510D01*
X80225500Y-109649153D01*
X70690847Y-109649153D01*
X73550905Y-106789095D01*
X85620442Y-106789095D01*
X85620442Y-106946788D01*
X85651203Y-107101431D01*
X85651206Y-107101443D01*
X85711544Y-107247114D01*
X85711551Y-107247127D01*
X85799152Y-107378230D01*
X85799155Y-107378234D01*
X85910649Y-107489728D01*
X85910653Y-107489731D01*
X86041756Y-107577332D01*
X86041769Y-107577339D01*
X86128798Y-107613387D01*
X86187445Y-107637679D01*
X86342095Y-107668441D01*
X86342098Y-107668442D01*
X86342100Y-107668442D01*
X86499786Y-107668442D01*
X86499787Y-107668441D01*
X86654439Y-107637679D01*
X86800121Y-107577336D01*
X86931231Y-107489731D01*
X87042731Y-107378231D01*
X87130336Y-107247121D01*
X87190679Y-107101439D01*
X87221442Y-106946784D01*
X87221442Y-106932684D01*
X87241127Y-106865645D01*
X87257761Y-106845003D01*
X87695239Y-106407525D01*
X87756562Y-106374040D01*
X87782920Y-106371206D01*
X90622768Y-106371206D01*
X90689807Y-106390891D01*
X90710449Y-106407525D01*
X90720416Y-106417492D01*
X90720420Y-106417495D01*
X90851523Y-106505096D01*
X90851536Y-106505103D01*
X90997207Y-106565441D01*
X90997212Y-106565443D01*
X91151862Y-106596205D01*
X91151865Y-106596206D01*
X91151867Y-106596206D01*
X91309553Y-106596206D01*
X91309554Y-106596205D01*
X91464206Y-106565443D01*
X91609888Y-106505100D01*
X91740998Y-106417495D01*
X91852498Y-106305995D01*
X91890567Y-106249019D01*
X91944178Y-106204216D01*
X92013503Y-106195507D01*
X92076531Y-106225662D01*
X92081350Y-106230230D01*
X101271181Y-115420061D01*
X101304666Y-115481384D01*
X101307500Y-115507742D01*
X101307500Y-115521846D01*
X101338261Y-115676489D01*
X101338264Y-115676501D01*
X101398602Y-115822172D01*
X101398609Y-115822185D01*
X101486210Y-115953288D01*
X101486213Y-115953292D01*
X101597707Y-116064786D01*
X101597711Y-116064789D01*
X101728814Y-116152390D01*
X101728827Y-116152397D01*
X101874498Y-116212735D01*
X101874503Y-116212737D01*
X102029153Y-116243499D01*
X102029156Y-116243500D01*
X102029158Y-116243500D01*
X102186844Y-116243500D01*
X102186845Y-116243499D01*
X102341497Y-116212737D01*
X102487179Y-116152394D01*
X102618289Y-116064789D01*
X102729789Y-115953289D01*
X102817394Y-115822179D01*
X102877737Y-115676497D01*
X102908500Y-115521842D01*
X102908500Y-115364158D01*
X102908500Y-115364155D01*
X102908499Y-115364153D01*
X102880560Y-115223691D01*
X102886787Y-115154100D01*
X102929650Y-115098922D01*
X102995540Y-115075678D01*
X103002177Y-115075500D01*
X115817059Y-115075500D01*
X115884098Y-115095185D01*
X115904740Y-115111819D01*
X115914707Y-115121786D01*
X115914711Y-115121789D01*
X116045814Y-115209390D01*
X116045827Y-115209397D01*
X116191498Y-115269735D01*
X116191503Y-115269737D01*
X116346153Y-115300499D01*
X116346156Y-115300500D01*
X116346158Y-115300500D01*
X116503844Y-115300500D01*
X116503845Y-115300499D01*
X116658497Y-115269737D01*
X116804179Y-115209394D01*
X116935289Y-115121789D01*
X117046789Y-115010289D01*
X117134394Y-114879179D01*
X117194737Y-114733497D01*
X117225500Y-114578842D01*
X117225500Y-114421158D01*
X117225500Y-114421155D01*
X117225499Y-114421153D01*
X117201499Y-114300499D01*
X117194737Y-114266503D01*
X117186639Y-114246952D01*
X117179170Y-114177483D01*
X117210445Y-114115004D01*
X117270534Y-114079352D01*
X117301200Y-114075500D01*
X122317059Y-114075500D01*
X122384098Y-114095185D01*
X122404740Y-114111819D01*
X122414707Y-114121786D01*
X122414711Y-114121789D01*
X122545814Y-114209390D01*
X122545827Y-114209397D01*
X122683683Y-114266498D01*
X122691503Y-114269737D01*
X122846153Y-114300499D01*
X122846156Y-114300500D01*
X122846158Y-114300500D01*
X123003844Y-114300500D01*
X123003845Y-114300499D01*
X123158497Y-114269737D01*
X123304179Y-114209394D01*
X123435289Y-114121789D01*
X123546789Y-114010289D01*
X123634394Y-113879179D01*
X123694737Y-113733497D01*
X123725500Y-113578842D01*
X123725500Y-113421158D01*
X123725500Y-113421155D01*
X123725499Y-113421153D01*
X123698117Y-113283497D01*
X123694737Y-113266503D01*
X123686639Y-113246952D01*
X123683131Y-113214326D01*
X123678462Y-113181853D01*
X123679415Y-113179765D01*
X123679170Y-113177483D01*
X123693858Y-113148139D01*
X123707487Y-113118297D01*
X123709417Y-113117056D01*
X123710445Y-113115004D01*
X123738660Y-113098263D01*
X123766265Y-113080523D01*
X123769294Y-113080087D01*
X123770534Y-113079352D01*
X123801200Y-113075500D01*
X123892059Y-113075500D01*
X123959098Y-113095185D01*
X123979740Y-113111819D01*
X123989707Y-113121786D01*
X123989711Y-113121789D01*
X124120814Y-113209390D01*
X124120827Y-113209397D01*
X124258683Y-113266498D01*
X124266503Y-113269737D01*
X124421153Y-113300499D01*
X124421156Y-113300500D01*
X124421158Y-113300500D01*
X124578844Y-113300500D01*
X124578845Y-113300499D01*
X124733497Y-113269737D01*
X124879179Y-113209394D01*
X125010289Y-113121789D01*
X125121789Y-113010289D01*
X125209394Y-112879179D01*
X125269737Y-112733497D01*
X125300500Y-112578842D01*
X125300500Y-112421158D01*
X125300500Y-112421155D01*
X125300499Y-112421153D01*
X125285718Y-112346846D01*
X125269737Y-112266503D01*
X125260856Y-112245061D01*
X125209397Y-112120827D01*
X125209390Y-112120814D01*
X125121789Y-111989711D01*
X125121786Y-111989707D01*
X125010292Y-111878213D01*
X125010288Y-111878210D01*
X124879185Y-111790609D01*
X124879172Y-111790602D01*
X124733501Y-111730264D01*
X124733489Y-111730261D01*
X124578845Y-111699500D01*
X124578842Y-111699500D01*
X124421158Y-111699500D01*
X124421155Y-111699500D01*
X124266510Y-111730261D01*
X124266498Y-111730264D01*
X124120827Y-111790602D01*
X124120814Y-111790609D01*
X123989711Y-111878210D01*
X123989707Y-111878213D01*
X123979740Y-111888181D01*
X123918417Y-111921666D01*
X123892059Y-111924500D01*
X103289741Y-111924500D01*
X103222702Y-111904815D01*
X103202060Y-111888181D01*
X101425626Y-110111747D01*
X101344032Y-110030153D01*
X132422500Y-110030153D01*
X132422500Y-110187846D01*
X132453261Y-110342489D01*
X132453264Y-110342501D01*
X132513602Y-110488172D01*
X132513609Y-110488185D01*
X132601210Y-110619288D01*
X132601213Y-110619292D01*
X132712707Y-110730786D01*
X132712711Y-110730789D01*
X132843814Y-110818390D01*
X132843827Y-110818397D01*
X132989498Y-110878735D01*
X132989503Y-110878737D01*
X133144153Y-110909499D01*
X133144156Y-110909500D01*
X133144158Y-110909500D01*
X133158258Y-110909500D01*
X133225297Y-110929185D01*
X133245939Y-110945819D01*
X138731485Y-116431365D01*
X138838635Y-116538515D01*
X138969865Y-116614281D01*
X139116234Y-116653500D01*
X148935258Y-116653500D01*
X149002297Y-116673185D01*
X149022939Y-116689819D01*
X149785181Y-117452061D01*
X149818666Y-117513384D01*
X149821500Y-117539742D01*
X149821500Y-117553846D01*
X149852261Y-117708489D01*
X149852264Y-117708501D01*
X149912602Y-117854172D01*
X149912609Y-117854185D01*
X150000210Y-117985288D01*
X150000213Y-117985292D01*
X150111707Y-118096786D01*
X150111711Y-118096789D01*
X150242814Y-118184390D01*
X150242827Y-118184397D01*
X150388498Y-118244735D01*
X150388503Y-118244737D01*
X150543153Y-118275499D01*
X150543156Y-118275500D01*
X150543158Y-118275500D01*
X150700844Y-118275500D01*
X150700845Y-118275499D01*
X150855497Y-118244737D01*
X151001179Y-118184394D01*
X151132289Y-118096789D01*
X151243789Y-117985289D01*
X151331394Y-117854179D01*
X151391737Y-117708497D01*
X151422500Y-117553842D01*
X151422500Y-117396158D01*
X151422500Y-117396155D01*
X151422499Y-117396153D01*
X151391738Y-117241510D01*
X151391737Y-117241503D01*
X151391735Y-117241498D01*
X151331397Y-117095827D01*
X151331390Y-117095814D01*
X151243789Y-116964711D01*
X151243786Y-116964707D01*
X151132292Y-116853213D01*
X151132288Y-116853210D01*
X151001185Y-116765609D01*
X151001172Y-116765602D01*
X150855501Y-116705264D01*
X150855489Y-116705261D01*
X150700845Y-116674500D01*
X150700842Y-116674500D01*
X150686742Y-116674500D01*
X150619703Y-116654815D01*
X150599061Y-116638181D01*
X149578367Y-115617487D01*
X149578365Y-115617485D01*
X149512750Y-115579602D01*
X149447136Y-115541719D01*
X149372952Y-115521842D01*
X149300766Y-115502500D01*
X149300765Y-115502500D01*
X139481742Y-115502500D01*
X139414703Y-115482815D01*
X139394061Y-115466181D01*
X134059819Y-110131939D01*
X134026334Y-110070616D01*
X134023500Y-110044258D01*
X134023500Y-110030155D01*
X134023499Y-110030153D01*
X134009842Y-109961497D01*
X133992737Y-109875503D01*
X133953447Y-109780647D01*
X133932397Y-109729827D01*
X133932390Y-109729814D01*
X133844789Y-109598711D01*
X133844786Y-109598707D01*
X133733293Y-109487214D01*
X133733287Y-109487209D01*
X133602185Y-109399609D01*
X133602172Y-109399602D01*
X133600021Y-109398711D01*
X145261500Y-109398711D01*
X145261500Y-109641288D01*
X145293161Y-109881785D01*
X145355947Y-110116104D01*
X145448773Y-110340205D01*
X145448777Y-110340214D01*
X145470974Y-110378661D01*
X145570064Y-110550289D01*
X145570066Y-110550292D01*
X145570067Y-110550293D01*
X145717733Y-110742736D01*
X145717739Y-110742743D01*
X145889256Y-110914260D01*
X145889262Y-110914265D01*
X146081711Y-111061936D01*
X146291788Y-111183224D01*
X146515900Y-111276054D01*
X146750211Y-111338838D01*
X146930586Y-111362584D01*
X146990711Y-111370500D01*
X146990712Y-111370500D01*
X147233289Y-111370500D01*
X147281388Y-111364167D01*
X147473789Y-111338838D01*
X147708100Y-111276054D01*
X147932212Y-111183224D01*
X148142289Y-111061936D01*
X148334738Y-110914265D01*
X148506265Y-110742738D01*
X148653936Y-110550289D01*
X148775224Y-110340212D01*
X148868054Y-110116100D01*
X148930838Y-109881789D01*
X148962500Y-109641288D01*
X148962500Y-109398712D01*
X148953952Y-109333786D01*
X148930838Y-109158212D01*
X148916904Y-109106211D01*
X148905443Y-109063436D01*
X148886907Y-108994259D01*
X148879613Y-108967038D01*
X152831500Y-108967038D01*
X152831500Y-109218962D01*
X152849687Y-109333789D01*
X152870910Y-109467785D01*
X152948760Y-109707383D01*
X153063132Y-109931848D01*
X153211201Y-110135649D01*
X153211205Y-110135654D01*
X153389345Y-110313794D01*
X153389350Y-110313798D01*
X153428857Y-110342501D01*
X153593155Y-110461870D01*
X153736184Y-110534747D01*
X153817616Y-110576239D01*
X153817618Y-110576239D01*
X153817621Y-110576241D01*
X154057215Y-110654090D01*
X154306038Y-110693500D01*
X154306039Y-110693500D01*
X154557961Y-110693500D01*
X154557962Y-110693500D01*
X154806785Y-110654090D01*
X155046379Y-110576241D01*
X155270845Y-110461870D01*
X155474656Y-110313793D01*
X155652793Y-110135656D01*
X155800870Y-109931845D01*
X155915241Y-109707379D01*
X155993090Y-109467785D01*
X156032500Y-109218962D01*
X156032500Y-108967038D01*
X156016747Y-108867577D01*
X158896500Y-108867577D01*
X158896500Y-109064422D01*
X158927290Y-109258826D01*
X158988117Y-109446029D01*
X159065911Y-109598707D01*
X159077476Y-109621405D01*
X159193172Y-109780646D01*
X159332354Y-109919828D01*
X159491595Y-110035524D01*
X159574455Y-110077743D01*
X159666970Y-110124882D01*
X159666972Y-110124882D01*
X159666975Y-110124884D01*
X159700128Y-110135656D01*
X159854173Y-110185709D01*
X160048578Y-110216500D01*
X160048583Y-110216500D01*
X160245422Y-110216500D01*
X160439826Y-110185709D01*
X160627025Y-110124884D01*
X160802405Y-110035524D01*
X160961646Y-109919828D01*
X161100828Y-109780646D01*
X161216524Y-109621405D01*
X161305884Y-109446025D01*
X161366709Y-109258826D01*
X161373222Y-109217707D01*
X161397500Y-109064422D01*
X161397500Y-108867577D01*
X161366709Y-108673173D01*
X161305882Y-108485970D01*
X161258743Y-108393455D01*
X161216524Y-108310595D01*
X161100828Y-108151354D01*
X160961646Y-108012172D01*
X160802405Y-107896476D01*
X160797310Y-107893880D01*
X160627029Y-107807117D01*
X160439826Y-107746290D01*
X160245422Y-107715500D01*
X160245417Y-107715500D01*
X160048583Y-107715500D01*
X160048578Y-107715500D01*
X159854173Y-107746290D01*
X159666970Y-107807117D01*
X159491594Y-107896476D01*
X159407540Y-107957546D01*
X159332354Y-108012172D01*
X159332352Y-108012174D01*
X159332351Y-108012174D01*
X159193174Y-108151351D01*
X159193174Y-108151352D01*
X159193172Y-108151354D01*
X159156588Y-108201707D01*
X159077476Y-108310594D01*
X158988117Y-108485970D01*
X158927290Y-108673173D01*
X158896500Y-108867577D01*
X156016747Y-108867577D01*
X155993090Y-108718215D01*
X155915241Y-108478621D01*
X155915239Y-108478618D01*
X155915239Y-108478616D01*
X155840952Y-108332821D01*
X155800870Y-108254155D01*
X155726181Y-108151354D01*
X155652798Y-108050350D01*
X155652794Y-108050345D01*
X155474654Y-107872205D01*
X155474649Y-107872201D01*
X155270848Y-107724132D01*
X155270847Y-107724131D01*
X155270845Y-107724130D01*
X155200747Y-107688413D01*
X155046383Y-107609760D01*
X154806785Y-107531910D01*
X154557962Y-107492500D01*
X154306038Y-107492500D01*
X154181626Y-107512205D01*
X154057214Y-107531910D01*
X153817616Y-107609760D01*
X153593151Y-107724132D01*
X153389350Y-107872201D01*
X153389345Y-107872205D01*
X153211205Y-108050345D01*
X153211201Y-108050350D01*
X153063132Y-108254151D01*
X152948760Y-108478616D01*
X152870910Y-108718214D01*
X152838333Y-108923895D01*
X152831500Y-108967038D01*
X148879613Y-108967038D01*
X148877262Y-108958264D01*
X148868054Y-108923900D01*
X148775224Y-108699788D01*
X148653936Y-108489711D01*
X148506265Y-108297262D01*
X148506260Y-108297256D01*
X148334743Y-108125739D01*
X148334736Y-108125733D01*
X148142293Y-107978067D01*
X148142292Y-107978066D01*
X148142289Y-107978064D01*
X147932212Y-107856776D01*
X147932205Y-107856773D01*
X147708104Y-107763947D01*
X147473785Y-107701161D01*
X147233289Y-107669500D01*
X147233288Y-107669500D01*
X146990712Y-107669500D01*
X146990711Y-107669500D01*
X146750214Y-107701161D01*
X146515895Y-107763947D01*
X146291794Y-107856773D01*
X146291785Y-107856777D01*
X146081706Y-107978067D01*
X145889263Y-108125733D01*
X145889256Y-108125739D01*
X145717739Y-108297256D01*
X145717733Y-108297263D01*
X145570067Y-108489706D01*
X145448777Y-108699785D01*
X145448773Y-108699794D01*
X145355947Y-108923895D01*
X145293161Y-109158214D01*
X145261500Y-109398711D01*
X133600021Y-109398711D01*
X133456501Y-109339264D01*
X133456489Y-109339261D01*
X133301845Y-109308500D01*
X133301842Y-109308500D01*
X133144158Y-109308500D01*
X133144155Y-109308500D01*
X132989510Y-109339261D01*
X132989498Y-109339264D01*
X132843827Y-109399602D01*
X132843814Y-109399609D01*
X132712711Y-109487210D01*
X132712707Y-109487213D01*
X132601213Y-109598707D01*
X132601210Y-109598711D01*
X132513609Y-109729814D01*
X132513602Y-109729827D01*
X132453264Y-109875498D01*
X132453261Y-109875510D01*
X132422500Y-110030153D01*
X101344032Y-110030153D01*
X100259380Y-108945501D01*
X98016015Y-106702135D01*
X123124500Y-106702135D01*
X123124500Y-107647870D01*
X123124501Y-107647876D01*
X123130908Y-107707483D01*
X123181202Y-107842328D01*
X123181206Y-107842335D01*
X123267452Y-107957544D01*
X123267455Y-107957547D01*
X123382664Y-108043793D01*
X123382671Y-108043797D01*
X123517517Y-108094091D01*
X123517516Y-108094091D01*
X123524444Y-108094835D01*
X123577127Y-108100500D01*
X124522872Y-108100499D01*
X124582483Y-108094091D01*
X124661952Y-108064451D01*
X124678452Y-108058297D01*
X124748144Y-108053313D01*
X124769235Y-108059917D01*
X124780182Y-108064451D01*
X124780194Y-108064454D01*
X124958890Y-108099999D01*
X124958894Y-108100000D01*
X125141106Y-108100000D01*
X125141109Y-108099999D01*
X125319805Y-108064454D01*
X125319817Y-108064451D01*
X125488140Y-107994730D01*
X125491005Y-107993199D01*
X125492679Y-107992850D01*
X125493781Y-107992394D01*
X125493867Y-107992602D01*
X125559407Y-107978952D01*
X125607918Y-107993193D01*
X125611617Y-107995170D01*
X125780037Y-108064931D01*
X125780042Y-108064933D01*
X125780046Y-108064933D01*
X125780047Y-108064934D01*
X125958843Y-108100500D01*
X125958846Y-108100500D01*
X126141156Y-108100500D01*
X126261445Y-108076572D01*
X126319958Y-108064933D01*
X126488389Y-107995167D01*
X126488394Y-107995163D01*
X126491541Y-107993482D01*
X126493386Y-107993097D01*
X126494018Y-107992836D01*
X126494067Y-107992955D01*
X126559943Y-107979236D01*
X126608459Y-107993482D01*
X126611615Y-107995169D01*
X126780037Y-108064931D01*
X126780042Y-108064933D01*
X126780046Y-108064933D01*
X126780047Y-108064934D01*
X126958843Y-108100500D01*
X126958846Y-108100500D01*
X127141156Y-108100500D01*
X127261445Y-108076572D01*
X127319958Y-108064933D01*
X127488389Y-107995167D01*
X127488394Y-107995163D01*
X127491541Y-107993482D01*
X127493386Y-107993097D01*
X127494018Y-107992836D01*
X127494067Y-107992955D01*
X127559943Y-107979236D01*
X127608459Y-107993482D01*
X127611615Y-107995169D01*
X127780037Y-108064931D01*
X127780042Y-108064933D01*
X127780046Y-108064933D01*
X127780047Y-108064934D01*
X127958843Y-108100500D01*
X127958846Y-108100500D01*
X128141156Y-108100500D01*
X128261445Y-108076572D01*
X128319958Y-108064933D01*
X128488389Y-107995167D01*
X128488394Y-107995163D01*
X128491541Y-107993482D01*
X128493386Y-107993097D01*
X128494018Y-107992836D01*
X128494067Y-107992955D01*
X128559943Y-107979236D01*
X128608459Y-107993482D01*
X128611615Y-107995169D01*
X128780037Y-108064931D01*
X128780042Y-108064933D01*
X128780046Y-108064933D01*
X128780047Y-108064934D01*
X128958843Y-108100500D01*
X128958846Y-108100500D01*
X129141156Y-108100500D01*
X129261445Y-108076572D01*
X129319958Y-108064933D01*
X129488389Y-107995167D01*
X129488394Y-107995163D01*
X129491541Y-107993482D01*
X129493386Y-107993097D01*
X129494018Y-107992836D01*
X129494067Y-107992955D01*
X129559943Y-107979236D01*
X129608459Y-107993482D01*
X129611615Y-107995169D01*
X129780037Y-108064931D01*
X129780042Y-108064933D01*
X129780046Y-108064933D01*
X129780047Y-108064934D01*
X129958843Y-108100500D01*
X129958846Y-108100500D01*
X130141156Y-108100500D01*
X130261445Y-108076572D01*
X130319958Y-108064933D01*
X130488389Y-107995167D01*
X130488394Y-107995163D01*
X130491541Y-107993482D01*
X130493386Y-107993097D01*
X130494018Y-107992836D01*
X130494067Y-107992955D01*
X130559943Y-107979236D01*
X130608459Y-107993482D01*
X130611615Y-107995169D01*
X130780037Y-108064931D01*
X130780042Y-108064933D01*
X130780046Y-108064933D01*
X130780047Y-108064934D01*
X130958843Y-108100500D01*
X130958846Y-108100500D01*
X131141156Y-108100500D01*
X131261445Y-108076572D01*
X131319958Y-108064933D01*
X131488389Y-107995167D01*
X131488394Y-107995163D01*
X131491541Y-107993482D01*
X131493386Y-107993097D01*
X131494018Y-107992836D01*
X131494067Y-107992955D01*
X131559943Y-107979236D01*
X131608459Y-107993482D01*
X131611615Y-107995169D01*
X131780037Y-108064931D01*
X131780042Y-108064933D01*
X131780046Y-108064933D01*
X131780047Y-108064934D01*
X131958843Y-108100500D01*
X131958846Y-108100500D01*
X132141156Y-108100500D01*
X132261445Y-108076572D01*
X132319958Y-108064933D01*
X132488389Y-107995167D01*
X132488394Y-107995163D01*
X132491541Y-107993482D01*
X132493386Y-107993097D01*
X132494018Y-107992836D01*
X132494067Y-107992955D01*
X132559943Y-107979236D01*
X132608459Y-107993482D01*
X132611615Y-107995169D01*
X132780037Y-108064931D01*
X132780042Y-108064933D01*
X132780046Y-108064933D01*
X132780047Y-108064934D01*
X132958843Y-108100500D01*
X132958846Y-108100500D01*
X133141156Y-108100500D01*
X133261445Y-108076572D01*
X133319958Y-108064933D01*
X133488389Y-107995167D01*
X133488394Y-107995163D01*
X133491541Y-107993482D01*
X133493386Y-107993097D01*
X133494018Y-107992836D01*
X133494067Y-107992955D01*
X133559943Y-107979236D01*
X133608459Y-107993482D01*
X133611615Y-107995169D01*
X133780037Y-108064931D01*
X133780042Y-108064933D01*
X133780046Y-108064933D01*
X133780047Y-108064934D01*
X133958843Y-108100500D01*
X133958846Y-108100500D01*
X134141156Y-108100500D01*
X134261445Y-108076572D01*
X134319958Y-108064933D01*
X134488389Y-107995167D01*
X134488394Y-107995163D01*
X134491541Y-107993482D01*
X134493386Y-107993097D01*
X134494018Y-107992836D01*
X134494067Y-107992955D01*
X134559943Y-107979236D01*
X134608459Y-107993482D01*
X134611615Y-107995169D01*
X134780037Y-108064931D01*
X134780042Y-108064933D01*
X134780046Y-108064933D01*
X134780047Y-108064934D01*
X134958843Y-108100500D01*
X134958846Y-108100500D01*
X135141156Y-108100500D01*
X135261445Y-108076572D01*
X135319958Y-108064933D01*
X135488389Y-107995167D01*
X135488399Y-107995160D01*
X135492061Y-107993203D01*
X135560462Y-107978950D01*
X135608992Y-107993198D01*
X135611854Y-107994728D01*
X135780182Y-108064451D01*
X135780194Y-108064454D01*
X135958890Y-108099999D01*
X135958894Y-108100000D01*
X136141106Y-108100000D01*
X136141109Y-108099999D01*
X136319805Y-108064454D01*
X136319817Y-108064451D01*
X136488140Y-107994730D01*
X136491005Y-107993199D01*
X136492679Y-107992850D01*
X136493781Y-107992394D01*
X136493867Y-107992602D01*
X136559407Y-107978952D01*
X136607918Y-107993193D01*
X136611617Y-107995170D01*
X136780037Y-108064931D01*
X136780042Y-108064933D01*
X136780046Y-108064933D01*
X136780047Y-108064934D01*
X136958843Y-108100500D01*
X136958846Y-108100500D01*
X137141156Y-108100500D01*
X137261445Y-108076572D01*
X137319958Y-108064933D01*
X137488389Y-107995167D01*
X137488394Y-107995163D01*
X137491541Y-107993482D01*
X137493386Y-107993097D01*
X137494018Y-107992836D01*
X137494067Y-107992955D01*
X137559943Y-107979236D01*
X137608459Y-107993482D01*
X137611615Y-107995169D01*
X137780037Y-108064931D01*
X137780042Y-108064933D01*
X137780046Y-108064933D01*
X137780047Y-108064934D01*
X137958843Y-108100500D01*
X137958846Y-108100500D01*
X138141156Y-108100500D01*
X138261445Y-108076572D01*
X138319958Y-108064933D01*
X138488389Y-107995167D01*
X138488394Y-107995163D01*
X138491541Y-107993482D01*
X138493386Y-107993097D01*
X138494018Y-107992836D01*
X138494067Y-107992955D01*
X138559943Y-107979236D01*
X138608459Y-107993482D01*
X138611615Y-107995169D01*
X138780037Y-108064931D01*
X138780042Y-108064933D01*
X138780046Y-108064933D01*
X138780047Y-108064934D01*
X138958843Y-108100500D01*
X138958846Y-108100500D01*
X139141156Y-108100500D01*
X139261445Y-108076572D01*
X139319958Y-108064933D01*
X139488389Y-107995167D01*
X139488394Y-107995163D01*
X139491541Y-107993482D01*
X139493386Y-107993097D01*
X139494018Y-107992836D01*
X139494067Y-107992955D01*
X139559943Y-107979236D01*
X139608459Y-107993482D01*
X139611615Y-107995169D01*
X139780037Y-108064931D01*
X139780042Y-108064933D01*
X139780046Y-108064933D01*
X139780047Y-108064934D01*
X139958843Y-108100500D01*
X139958846Y-108100500D01*
X140141156Y-108100500D01*
X140261445Y-108076572D01*
X140319958Y-108064933D01*
X140447335Y-108012172D01*
X140488387Y-107995168D01*
X140488391Y-107995166D01*
X140636091Y-107896476D01*
X140639972Y-107893883D01*
X140768883Y-107764972D01*
X140847128Y-107647870D01*
X140870166Y-107613391D01*
X140870168Y-107613387D01*
X140893422Y-107557245D01*
X140939933Y-107444958D01*
X140951572Y-107386445D01*
X140975500Y-107266156D01*
X140975500Y-107083843D01*
X140939934Y-106905047D01*
X140939933Y-106905046D01*
X140939933Y-106905042D01*
X140930108Y-106881322D01*
X140870168Y-106736612D01*
X140870166Y-106736608D01*
X140768886Y-106585032D01*
X140768880Y-106585024D01*
X140639975Y-106456119D01*
X140639967Y-106456113D01*
X140488391Y-106354833D01*
X140488387Y-106354831D01*
X140319962Y-106285068D01*
X140319952Y-106285065D01*
X140141156Y-106249500D01*
X140141154Y-106249500D01*
X139958846Y-106249500D01*
X139958844Y-106249500D01*
X139780047Y-106285065D01*
X139780041Y-106285067D01*
X139611605Y-106354835D01*
X139608444Y-106356525D01*
X139606600Y-106356908D01*
X139605984Y-106357164D01*
X139605935Y-106357047D01*
X139540040Y-106370761D01*
X139491556Y-106356525D01*
X139488394Y-106354835D01*
X139319958Y-106285067D01*
X139319952Y-106285065D01*
X139141156Y-106249500D01*
X139141154Y-106249500D01*
X138958846Y-106249500D01*
X138958844Y-106249500D01*
X138780047Y-106285065D01*
X138780041Y-106285067D01*
X138611605Y-106354835D01*
X138608444Y-106356525D01*
X138606600Y-106356908D01*
X138605984Y-106357164D01*
X138605935Y-106357047D01*
X138540040Y-106370761D01*
X138491556Y-106356525D01*
X138488394Y-106354835D01*
X138319958Y-106285067D01*
X138319952Y-106285065D01*
X138141156Y-106249500D01*
X138141154Y-106249500D01*
X137958846Y-106249500D01*
X137958844Y-106249500D01*
X137780047Y-106285065D01*
X137780041Y-106285067D01*
X137611605Y-106354835D01*
X137608444Y-106356525D01*
X137606600Y-106356908D01*
X137605984Y-106357164D01*
X137605935Y-106357047D01*
X137540040Y-106370761D01*
X137491556Y-106356525D01*
X137488394Y-106354835D01*
X137319958Y-106285067D01*
X137319952Y-106285065D01*
X137141156Y-106249500D01*
X137141154Y-106249500D01*
X136958846Y-106249500D01*
X136958844Y-106249500D01*
X136780047Y-106285065D01*
X136780041Y-106285067D01*
X136611607Y-106354834D01*
X136607909Y-106356811D01*
X136539505Y-106371045D01*
X136491022Y-106356808D01*
X136488153Y-106355275D01*
X136319817Y-106285548D01*
X136319805Y-106285545D01*
X136141109Y-106250000D01*
X135958890Y-106250000D01*
X135780194Y-106285545D01*
X135780186Y-106285547D01*
X135611839Y-106355278D01*
X135608972Y-106356811D01*
X135607300Y-106357158D01*
X135606221Y-106357606D01*
X135606136Y-106357401D01*
X135540568Y-106371045D01*
X135492086Y-106356808D01*
X135488390Y-106354833D01*
X135319962Y-106285068D01*
X135319952Y-106285065D01*
X135141156Y-106249500D01*
X135141154Y-106249500D01*
X134958846Y-106249500D01*
X134958844Y-106249500D01*
X134780047Y-106285065D01*
X134780041Y-106285067D01*
X134611605Y-106354835D01*
X134608444Y-106356525D01*
X134606600Y-106356908D01*
X134605984Y-106357164D01*
X134605935Y-106357047D01*
X134540040Y-106370761D01*
X134491556Y-106356525D01*
X134488394Y-106354835D01*
X134319958Y-106285067D01*
X134319952Y-106285065D01*
X134141156Y-106249500D01*
X134141154Y-106249500D01*
X133958846Y-106249500D01*
X133958844Y-106249500D01*
X133780047Y-106285065D01*
X133780041Y-106285067D01*
X133611605Y-106354835D01*
X133608444Y-106356525D01*
X133606600Y-106356908D01*
X133605984Y-106357164D01*
X133605935Y-106357047D01*
X133540040Y-106370761D01*
X133491556Y-106356525D01*
X133488394Y-106354835D01*
X133319958Y-106285067D01*
X133319952Y-106285065D01*
X133141156Y-106249500D01*
X133141154Y-106249500D01*
X132958846Y-106249500D01*
X132958844Y-106249500D01*
X132780047Y-106285065D01*
X132780041Y-106285067D01*
X132611605Y-106354835D01*
X132608444Y-106356525D01*
X132606600Y-106356908D01*
X132605984Y-106357164D01*
X132605935Y-106357047D01*
X132540040Y-106370761D01*
X132491556Y-106356525D01*
X132488394Y-106354835D01*
X132319958Y-106285067D01*
X132319952Y-106285065D01*
X132141156Y-106249500D01*
X132141154Y-106249500D01*
X131958846Y-106249500D01*
X131958844Y-106249500D01*
X131780047Y-106285065D01*
X131780041Y-106285067D01*
X131611605Y-106354835D01*
X131608444Y-106356525D01*
X131606600Y-106356908D01*
X131605984Y-106357164D01*
X131605935Y-106357047D01*
X131540040Y-106370761D01*
X131491556Y-106356525D01*
X131488394Y-106354835D01*
X131319958Y-106285067D01*
X131319952Y-106285065D01*
X131141156Y-106249500D01*
X131141154Y-106249500D01*
X130958846Y-106249500D01*
X130958844Y-106249500D01*
X130780047Y-106285065D01*
X130780041Y-106285067D01*
X130611605Y-106354835D01*
X130608444Y-106356525D01*
X130606600Y-106356908D01*
X130605984Y-106357164D01*
X130605935Y-106357047D01*
X130540040Y-106370761D01*
X130491556Y-106356525D01*
X130488394Y-106354835D01*
X130319958Y-106285067D01*
X130319952Y-106285065D01*
X130141156Y-106249500D01*
X130141154Y-106249500D01*
X129958846Y-106249500D01*
X129958844Y-106249500D01*
X129780047Y-106285065D01*
X129780041Y-106285067D01*
X129611605Y-106354835D01*
X129608444Y-106356525D01*
X129606600Y-106356908D01*
X129605984Y-106357164D01*
X129605935Y-106357047D01*
X129540040Y-106370761D01*
X129491556Y-106356525D01*
X129488394Y-106354835D01*
X129319958Y-106285067D01*
X129319952Y-106285065D01*
X129141156Y-106249500D01*
X129141154Y-106249500D01*
X128958846Y-106249500D01*
X128958844Y-106249500D01*
X128780047Y-106285065D01*
X128780041Y-106285067D01*
X128611605Y-106354835D01*
X128608444Y-106356525D01*
X128606600Y-106356908D01*
X128605984Y-106357164D01*
X128605935Y-106357047D01*
X128540040Y-106370761D01*
X128491556Y-106356525D01*
X128488394Y-106354835D01*
X128319958Y-106285067D01*
X128319952Y-106285065D01*
X128141156Y-106249500D01*
X128141154Y-106249500D01*
X127958846Y-106249500D01*
X127958844Y-106249500D01*
X127780047Y-106285065D01*
X127780041Y-106285067D01*
X127611605Y-106354835D01*
X127608444Y-106356525D01*
X127606600Y-106356908D01*
X127605984Y-106357164D01*
X127605935Y-106357047D01*
X127540040Y-106370761D01*
X127491556Y-106356525D01*
X127488394Y-106354835D01*
X127319958Y-106285067D01*
X127319952Y-106285065D01*
X127141156Y-106249500D01*
X127141154Y-106249500D01*
X126958846Y-106249500D01*
X126958844Y-106249500D01*
X126780047Y-106285065D01*
X126780041Y-106285067D01*
X126611605Y-106354835D01*
X126608444Y-106356525D01*
X126606600Y-106356908D01*
X126605984Y-106357164D01*
X126605935Y-106357047D01*
X126540040Y-106370761D01*
X126491556Y-106356525D01*
X126488394Y-106354835D01*
X126319958Y-106285067D01*
X126319952Y-106285065D01*
X126141156Y-106249500D01*
X126141154Y-106249500D01*
X125958846Y-106249500D01*
X125958844Y-106249500D01*
X125780047Y-106285065D01*
X125780041Y-106285067D01*
X125611607Y-106354834D01*
X125607909Y-106356811D01*
X125539505Y-106371045D01*
X125491022Y-106356808D01*
X125488153Y-106355275D01*
X125319817Y-106285548D01*
X125319805Y-106285545D01*
X125141109Y-106250000D01*
X124958891Y-106250000D01*
X124780190Y-106285545D01*
X124780180Y-106285549D01*
X124769227Y-106290085D01*
X124699757Y-106297548D01*
X124678451Y-106291702D01*
X124582482Y-106255908D01*
X124582483Y-106255908D01*
X124522883Y-106249501D01*
X124522881Y-106249500D01*
X124522873Y-106249500D01*
X124522864Y-106249500D01*
X123577129Y-106249500D01*
X123577123Y-106249501D01*
X123517516Y-106255908D01*
X123382671Y-106306202D01*
X123382664Y-106306206D01*
X123267455Y-106392452D01*
X123267452Y-106392455D01*
X123181206Y-106507664D01*
X123181202Y-106507671D01*
X123130908Y-106642517D01*
X123124501Y-106702116D01*
X123124500Y-106702135D01*
X98016015Y-106702135D01*
X97347521Y-106033641D01*
X97314036Y-105972318D01*
X97319020Y-105902626D01*
X97360892Y-105846693D01*
X97426356Y-105822276D01*
X97494629Y-105837128D01*
X97504093Y-105842858D01*
X97509833Y-105846693D01*
X97537821Y-105865394D01*
X97537823Y-105865395D01*
X97537827Y-105865397D01*
X97672436Y-105921153D01*
X97683503Y-105925737D01*
X97838153Y-105956499D01*
X97838156Y-105956500D01*
X97838158Y-105956500D01*
X97995844Y-105956500D01*
X97995845Y-105956499D01*
X98150497Y-105925737D01*
X98296179Y-105865394D01*
X98427289Y-105777789D01*
X98538789Y-105666289D01*
X98626394Y-105535179D01*
X98686737Y-105389497D01*
X98717500Y-105234842D01*
X98717500Y-105077158D01*
X98717500Y-105077155D01*
X98717499Y-105077153D01*
X98686738Y-104922510D01*
X98686737Y-104922503D01*
X98658297Y-104853842D01*
X98626397Y-104776827D01*
X98626390Y-104776814D01*
X98538789Y-104645711D01*
X98538786Y-104645707D01*
X98427292Y-104534213D01*
X98427288Y-104534210D01*
X98296185Y-104446609D01*
X98296172Y-104446602D01*
X98150501Y-104386264D01*
X98150489Y-104386261D01*
X97995845Y-104355500D01*
X97995842Y-104355500D01*
X97838158Y-104355500D01*
X97838155Y-104355500D01*
X97683510Y-104386261D01*
X97683498Y-104386264D01*
X97537827Y-104446602D01*
X97537814Y-104446609D01*
X97406711Y-104534210D01*
X97406707Y-104534213D01*
X97295213Y-104645707D01*
X97295210Y-104645711D01*
X97207609Y-104776814D01*
X97207602Y-104776827D01*
X97147264Y-104922498D01*
X97147261Y-104922510D01*
X97116500Y-105077153D01*
X97116500Y-105217190D01*
X97096815Y-105284229D01*
X97044011Y-105329984D01*
X96974853Y-105339928D01*
X96923610Y-105320293D01*
X96879183Y-105290608D01*
X96879172Y-105290602D01*
X96733501Y-105230264D01*
X96733489Y-105230261D01*
X96578845Y-105199500D01*
X96578842Y-105199500D01*
X96421158Y-105199500D01*
X96421155Y-105199500D01*
X96266510Y-105230261D01*
X96266498Y-105230264D01*
X96120827Y-105290602D01*
X96120814Y-105290609D01*
X95989711Y-105378210D01*
X95989707Y-105378213D01*
X95878213Y-105489707D01*
X95878210Y-105489711D01*
X95790609Y-105620814D01*
X95790602Y-105620827D01*
X95730264Y-105766498D01*
X95730261Y-105766510D01*
X95699500Y-105921153D01*
X95699500Y-106075500D01*
X95679815Y-106142539D01*
X95627011Y-106188294D01*
X95575500Y-106199500D01*
X95421155Y-106199500D01*
X95266510Y-106230261D01*
X95266498Y-106230264D01*
X95120827Y-106290602D01*
X95120814Y-106290609D01*
X94989711Y-106378210D01*
X94989707Y-106378213D01*
X94878213Y-106489707D01*
X94878210Y-106489711D01*
X94790609Y-106620814D01*
X94790602Y-106620827D01*
X94730264Y-106766498D01*
X94730261Y-106766510D01*
X94699500Y-106921153D01*
X94699500Y-106921258D01*
X94699484Y-106921309D01*
X94698903Y-106927218D01*
X94697782Y-106927107D01*
X94679815Y-106988297D01*
X94627011Y-107034052D01*
X94557853Y-107043996D01*
X94494297Y-107014971D01*
X94487819Y-107008939D01*
X91971531Y-104492651D01*
X91971529Y-104492649D01*
X91891774Y-104446602D01*
X91840300Y-104416883D01*
X91761694Y-104395821D01*
X91693930Y-104377664D01*
X91693929Y-104377664D01*
X91172578Y-104377664D01*
X91105539Y-104357979D01*
X91059784Y-104305175D01*
X91049840Y-104236017D01*
X91078865Y-104172461D01*
X91084897Y-104165983D01*
X92391772Y-102859108D01*
X111224500Y-102859108D01*
X111224500Y-102990892D01*
X111241554Y-103054539D01*
X111258608Y-103118187D01*
X111267965Y-103134393D01*
X111324500Y-103232314D01*
X111417686Y-103325500D01*
X111531814Y-103391392D01*
X111659108Y-103425500D01*
X111659110Y-103425500D01*
X153490891Y-103425500D01*
X153490893Y-103425500D01*
X153618186Y-103391392D01*
X153732314Y-103325500D01*
X153825500Y-103232314D01*
X153891392Y-103118186D01*
X153925500Y-102990893D01*
X153925500Y-102859108D01*
X153891392Y-102731814D01*
X153825500Y-102617686D01*
X132882314Y-81674500D01*
X132816421Y-81636456D01*
X132768185Y-81608607D01*
X132745261Y-81602464D01*
X132745261Y-81602465D01*
X132693076Y-81588482D01*
X132640893Y-81574500D01*
X132509108Y-81574500D01*
X132381812Y-81608608D01*
X132267686Y-81674500D01*
X132267683Y-81674502D01*
X111324502Y-102617683D01*
X111324500Y-102617686D01*
X111258608Y-102731812D01*
X111250171Y-102763300D01*
X111224500Y-102859108D01*
X92391772Y-102859108D01*
X92487580Y-102763300D01*
X92826380Y-102424500D01*
X96847206Y-98403673D01*
X96908527Y-98370190D01*
X96978219Y-98375174D01*
X97034152Y-98417046D01*
X97037985Y-98422463D01*
X97041206Y-98427283D01*
X97041213Y-98427292D01*
X97152707Y-98538786D01*
X97152711Y-98538789D01*
X97283814Y-98626390D01*
X97283827Y-98626397D01*
X97429498Y-98686735D01*
X97429503Y-98686737D01*
X97526641Y-98706059D01*
X97584153Y-98717499D01*
X97584156Y-98717500D01*
X97584158Y-98717500D01*
X97741844Y-98717500D01*
X97741845Y-98717499D01*
X97896497Y-98686737D01*
X98042179Y-98626394D01*
X98173289Y-98538789D01*
X98284789Y-98427289D01*
X98372394Y-98296179D01*
X98372937Y-98294865D01*
X98373406Y-98294284D01*
X98375264Y-98290809D01*
X98375923Y-98291161D01*
X98416776Y-98240462D01*
X98483070Y-98218395D01*
X98550770Y-98235672D01*
X98598382Y-98286807D01*
X98611500Y-98342316D01*
X98611500Y-98706059D01*
X98591815Y-98773098D01*
X98575181Y-98793740D01*
X98565213Y-98803707D01*
X98565210Y-98803711D01*
X98477609Y-98934814D01*
X98477602Y-98934827D01*
X98417264Y-99080498D01*
X98417261Y-99080510D01*
X98386500Y-99235153D01*
X98386500Y-99392846D01*
X98417261Y-99547489D01*
X98417264Y-99547501D01*
X98477602Y-99693172D01*
X98477609Y-99693185D01*
X98565210Y-99824288D01*
X98565213Y-99824292D01*
X98676707Y-99935786D01*
X98676711Y-99935789D01*
X98807814Y-100023390D01*
X98807827Y-100023397D01*
X98953498Y-100083735D01*
X98953503Y-100083737D01*
X99108153Y-100114499D01*
X99108156Y-100114500D01*
X99108158Y-100114500D01*
X99265844Y-100114500D01*
X99265845Y-100114499D01*
X99420497Y-100083737D01*
X99566179Y-100023394D01*
X99697289Y-99935789D01*
X99808789Y-99824289D01*
X99896394Y-99693179D01*
X99956737Y-99547497D01*
X99987500Y-99392842D01*
X99987500Y-99235158D01*
X99987500Y-99235155D01*
X99987499Y-99235153D01*
X99956738Y-99080510D01*
X99956737Y-99080503D01*
X99956735Y-99080498D01*
X99896397Y-98934827D01*
X99896390Y-98934814D01*
X99808789Y-98803711D01*
X99808786Y-98803707D01*
X99798819Y-98793740D01*
X99765334Y-98732417D01*
X99762500Y-98706059D01*
X99762500Y-97681528D01*
X99782185Y-97614489D01*
X99798819Y-97593847D01*
X100723543Y-96669123D01*
X100784866Y-96635638D01*
X100811224Y-96632804D01*
X100825326Y-96632804D01*
X100825327Y-96632803D01*
X100979979Y-96602041D01*
X101125661Y-96541698D01*
X101256771Y-96454093D01*
X101368271Y-96342593D01*
X101455876Y-96211483D01*
X101516219Y-96065801D01*
X101546982Y-95911146D01*
X101546982Y-95753462D01*
X101546982Y-95753459D01*
X101546981Y-95753457D01*
X101516220Y-95598814D01*
X101516219Y-95598807D01*
X101516217Y-95598802D01*
X101455879Y-95453131D01*
X101455872Y-95453118D01*
X101368271Y-95322015D01*
X101368268Y-95322011D01*
X101256774Y-95210517D01*
X101256770Y-95210514D01*
X101125667Y-95122913D01*
X101125654Y-95122906D01*
X100979983Y-95062568D01*
X100979971Y-95062565D01*
X100825327Y-95031804D01*
X100825324Y-95031804D01*
X100667640Y-95031804D01*
X100667637Y-95031804D01*
X100512992Y-95062565D01*
X100512980Y-95062568D01*
X100367309Y-95122906D01*
X100367296Y-95122913D01*
X100236193Y-95210514D01*
X100236189Y-95210517D01*
X100124695Y-95322011D01*
X100124692Y-95322015D01*
X100037091Y-95453118D01*
X100037084Y-95453131D01*
X99976746Y-95598802D01*
X99976743Y-95598814D01*
X99945982Y-95753457D01*
X99945982Y-95767562D01*
X99926297Y-95834601D01*
X99909663Y-95855243D01*
X98726487Y-97038418D01*
X98726485Y-97038421D01*
X98650719Y-97169649D01*
X98611500Y-97316020D01*
X98611500Y-97491683D01*
X98591815Y-97558722D01*
X98539011Y-97604477D01*
X98469853Y-97614421D01*
X98406297Y-97585396D01*
X98382731Y-97558012D01*
X98377022Y-97548994D01*
X98372394Y-97537821D01*
X98325815Y-97468111D01*
X98325008Y-97466836D01*
X98315797Y-97434659D01*
X98305797Y-97402721D01*
X98306001Y-97400437D01*
X98305780Y-97399664D01*
X98306193Y-97398290D01*
X98308160Y-97376315D01*
X98336500Y-97233844D01*
X98336500Y-97076155D01*
X98336499Y-97076153D01*
X98305737Y-96921503D01*
X98305735Y-96921498D01*
X98245397Y-96775827D01*
X98245390Y-96775814D01*
X98157789Y-96644711D01*
X98157786Y-96644707D01*
X98046292Y-96533213D01*
X98046288Y-96533210D01*
X97915185Y-96445609D01*
X97915172Y-96445602D01*
X97769501Y-96385264D01*
X97769489Y-96385261D01*
X97614845Y-96354500D01*
X97614842Y-96354500D01*
X97457158Y-96354500D01*
X97457155Y-96354500D01*
X97302510Y-96385261D01*
X97302498Y-96385264D01*
X97156827Y-96445602D01*
X97156814Y-96445609D01*
X97025711Y-96533210D01*
X97025707Y-96533213D01*
X97015740Y-96543181D01*
X96954417Y-96576666D01*
X96928059Y-96579500D01*
X95229895Y-96579500D01*
X95083524Y-96618719D01*
X94952296Y-96694485D01*
X94952293Y-96694487D01*
X88545873Y-103100908D01*
X88484550Y-103134393D01*
X88458192Y-103137227D01*
X88444089Y-103137227D01*
X88289444Y-103167988D01*
X88289432Y-103167991D01*
X88143761Y-103228329D01*
X88143748Y-103228336D01*
X88012645Y-103315937D01*
X88012641Y-103315940D01*
X87901147Y-103427434D01*
X87901144Y-103427438D01*
X87813543Y-103558541D01*
X87813536Y-103558554D01*
X87753198Y-103704225D01*
X87753195Y-103704237D01*
X87722434Y-103858880D01*
X87722434Y-103892614D01*
X87702749Y-103959653D01*
X87649945Y-104005408D01*
X87645886Y-104007175D01*
X87504827Y-104065602D01*
X87504814Y-104065609D01*
X87373711Y-104153210D01*
X87373707Y-104153213D01*
X87262213Y-104264707D01*
X87262210Y-104264711D01*
X87174609Y-104395814D01*
X87174602Y-104395827D01*
X87114264Y-104541498D01*
X87114261Y-104541510D01*
X87083500Y-104696153D01*
X87083500Y-104853846D01*
X87114261Y-105008489D01*
X87114264Y-105008501D01*
X87174604Y-105154177D01*
X87178646Y-105160226D01*
X87199522Y-105226904D01*
X87181036Y-105294284D01*
X87145291Y-105328985D01*
X87146258Y-105330245D01*
X87139812Y-105335190D01*
X86443881Y-106031123D01*
X86382558Y-106064608D01*
X86356200Y-106067442D01*
X86342097Y-106067442D01*
X86187452Y-106098203D01*
X86187440Y-106098206D01*
X86041769Y-106158544D01*
X86041756Y-106158551D01*
X85910653Y-106246152D01*
X85910649Y-106246155D01*
X85799155Y-106357649D01*
X85799152Y-106357653D01*
X85711551Y-106488756D01*
X85711544Y-106488769D01*
X85651206Y-106634440D01*
X85651203Y-106634452D01*
X85620442Y-106789095D01*
X73550905Y-106789095D01*
X88343848Y-91996152D01*
X95084499Y-91996152D01*
X95084499Y-92153845D01*
X95115260Y-92308488D01*
X95115263Y-92308500D01*
X95175601Y-92454171D01*
X95175608Y-92454184D01*
X95263209Y-92585287D01*
X95263212Y-92585291D01*
X95374706Y-92696785D01*
X95374710Y-92696788D01*
X95505813Y-92784389D01*
X95505826Y-92784396D01*
X95651497Y-92844734D01*
X95651502Y-92844736D01*
X95806152Y-92875498D01*
X95806155Y-92875499D01*
X95806157Y-92875499D01*
X95820257Y-92875499D01*
X95887296Y-92895184D01*
X95907938Y-92911818D01*
X98071635Y-95075515D01*
X98202865Y-95151281D01*
X98349234Y-95190500D01*
X98349236Y-95190500D01*
X98354278Y-95191851D01*
X98409866Y-95223945D01*
X98422707Y-95236786D01*
X98422711Y-95236789D01*
X98553814Y-95324390D01*
X98553827Y-95324397D01*
X98699498Y-95384735D01*
X98699503Y-95384737D01*
X98854153Y-95415499D01*
X98854156Y-95415500D01*
X98854158Y-95415500D01*
X99011844Y-95415500D01*
X99011845Y-95415499D01*
X99166497Y-95384737D01*
X99312179Y-95324394D01*
X99443289Y-95236789D01*
X99554789Y-95125289D01*
X99642394Y-94994179D01*
X99702737Y-94848497D01*
X99733500Y-94693842D01*
X99733500Y-94650500D01*
X99753185Y-94583461D01*
X99805989Y-94537706D01*
X99857500Y-94526500D01*
X99900844Y-94526500D01*
X99900845Y-94526499D01*
X100055497Y-94495737D01*
X100201179Y-94435394D01*
X100332289Y-94347789D01*
X100443789Y-94236289D01*
X100531394Y-94105179D01*
X100591737Y-93959497D01*
X100622500Y-93804842D01*
X100622500Y-93647158D01*
X100622500Y-93647155D01*
X100622499Y-93647153D01*
X100591738Y-93492510D01*
X100591737Y-93492503D01*
X100591735Y-93492498D01*
X100531397Y-93346827D01*
X100531390Y-93346814D01*
X100443789Y-93215711D01*
X100443786Y-93215707D01*
X100332292Y-93104213D01*
X100332288Y-93104210D01*
X100201185Y-93016609D01*
X100201172Y-93016602D01*
X100055501Y-92956264D01*
X100055489Y-92956261D01*
X99900845Y-92925500D01*
X99900842Y-92925500D01*
X99743158Y-92925500D01*
X99743155Y-92925500D01*
X99588510Y-92956261D01*
X99588498Y-92956264D01*
X99442827Y-93016602D01*
X99442814Y-93016609D01*
X99311711Y-93104210D01*
X99311707Y-93104213D01*
X99301740Y-93114181D01*
X99274812Y-93128884D01*
X99248994Y-93145477D01*
X99242793Y-93146368D01*
X99240417Y-93147666D01*
X99214059Y-93150500D01*
X99095741Y-93150500D01*
X99028702Y-93130815D01*
X99008060Y-93114181D01*
X97356819Y-91462939D01*
X97323334Y-91401616D01*
X97320500Y-91375258D01*
X97320500Y-91361155D01*
X97320499Y-91361153D01*
X97309382Y-91305263D01*
X97289737Y-91206503D01*
X97289735Y-91206498D01*
X97229397Y-91060827D01*
X97229390Y-91060814D01*
X97141789Y-90929711D01*
X97141786Y-90929707D01*
X97030292Y-90818213D01*
X97030288Y-90818210D01*
X96899185Y-90730609D01*
X96899172Y-90730602D01*
X96753501Y-90670264D01*
X96753489Y-90670261D01*
X96598845Y-90639500D01*
X96598842Y-90639500D01*
X96441158Y-90639500D01*
X96441155Y-90639500D01*
X96286510Y-90670261D01*
X96286498Y-90670264D01*
X96140827Y-90730602D01*
X96140814Y-90730609D01*
X96009711Y-90818210D01*
X96009707Y-90818213D01*
X95898213Y-90929707D01*
X95898210Y-90929711D01*
X95810609Y-91060814D01*
X95810602Y-91060827D01*
X95750263Y-91206500D01*
X95750260Y-91206512D01*
X95750040Y-91207619D01*
X95749764Y-91208144D01*
X95748493Y-91212337D01*
X95747698Y-91212095D01*
X95717653Y-91269529D01*
X95656936Y-91304101D01*
X95652617Y-91305040D01*
X95651506Y-91305260D01*
X95651497Y-91305263D01*
X95505826Y-91365601D01*
X95505813Y-91365608D01*
X95374710Y-91453209D01*
X95374706Y-91453212D01*
X95263212Y-91564706D01*
X95263209Y-91564710D01*
X95175608Y-91695813D01*
X95175601Y-91695826D01*
X95115263Y-91841497D01*
X95115260Y-91841509D01*
X95084499Y-91996152D01*
X88343848Y-91996152D01*
X106631847Y-73708153D01*
X112229500Y-73708153D01*
X112229500Y-73865846D01*
X112260261Y-74020489D01*
X112260264Y-74020501D01*
X112320602Y-74166172D01*
X112320609Y-74166185D01*
X112408210Y-74297288D01*
X112408213Y-74297292D01*
X112519707Y-74408786D01*
X112519711Y-74408789D01*
X112650814Y-74496390D01*
X112650827Y-74496397D01*
X112781914Y-74550694D01*
X112796503Y-74556737D01*
X112938841Y-74585050D01*
X112951153Y-74587499D01*
X112951156Y-74587500D01*
X112951158Y-74587500D01*
X113108844Y-74587500D01*
X113108845Y-74587499D01*
X113263497Y-74556737D01*
X113263507Y-74556732D01*
X113269328Y-74554968D01*
X113269977Y-74557109D01*
X113329466Y-74550694D01*
X113391956Y-74581949D01*
X113395170Y-74585050D01*
X117014485Y-78204365D01*
X117121635Y-78311515D01*
X117252865Y-78387281D01*
X117399234Y-78426500D01*
X117627059Y-78426500D01*
X117694098Y-78446185D01*
X117739853Y-78498989D01*
X117749797Y-78568147D01*
X117720772Y-78631703D01*
X117714740Y-78638181D01*
X117615213Y-78737707D01*
X117615210Y-78737711D01*
X117527609Y-78868814D01*
X117527602Y-78868827D01*
X117467264Y-79014498D01*
X117467261Y-79014510D01*
X117436500Y-79169153D01*
X117436500Y-79326846D01*
X117467261Y-79481489D01*
X117467264Y-79481501D01*
X117527602Y-79627172D01*
X117527609Y-79627185D01*
X117615210Y-79758288D01*
X117615213Y-79758292D01*
X117726707Y-79869786D01*
X117726711Y-79869789D01*
X117857814Y-79957390D01*
X117857827Y-79957397D01*
X118003498Y-80017735D01*
X118003503Y-80017737D01*
X118158153Y-80048499D01*
X118158156Y-80048500D01*
X118158158Y-80048500D01*
X118315844Y-80048500D01*
X118315845Y-80048499D01*
X118470497Y-80017737D01*
X118616179Y-79957394D01*
X118747289Y-79869789D01*
X118747292Y-79869786D01*
X118757260Y-79859819D01*
X118818583Y-79826334D01*
X118844941Y-79823500D01*
X125821258Y-79823500D01*
X125888297Y-79843185D01*
X125908939Y-79859819D01*
X127052181Y-81003061D01*
X127085666Y-81064384D01*
X127088500Y-81090742D01*
X127088500Y-81104846D01*
X127119261Y-81259489D01*
X127119264Y-81259501D01*
X127179602Y-81405172D01*
X127179609Y-81405185D01*
X127267210Y-81536288D01*
X127267213Y-81536292D01*
X127378707Y-81647786D01*
X127378711Y-81647789D01*
X127509814Y-81735390D01*
X127509827Y-81735397D01*
X127655498Y-81795735D01*
X127655503Y-81795737D01*
X127810153Y-81826499D01*
X127810156Y-81826500D01*
X127810158Y-81826500D01*
X127967844Y-81826500D01*
X127967845Y-81826499D01*
X128122497Y-81795737D01*
X128268179Y-81735394D01*
X128399289Y-81647789D01*
X128510789Y-81536289D01*
X128598394Y-81405179D01*
X128658737Y-81259497D01*
X128689500Y-81104842D01*
X128689500Y-80947158D01*
X128689500Y-80947155D01*
X128689499Y-80947153D01*
X128658738Y-80792510D01*
X128658737Y-80792503D01*
X128658735Y-80792498D01*
X128598397Y-80646827D01*
X128598390Y-80646814D01*
X128510789Y-80515711D01*
X128510786Y-80515707D01*
X128399292Y-80404213D01*
X128399288Y-80404210D01*
X128268185Y-80316609D01*
X128268172Y-80316602D01*
X128122501Y-80256264D01*
X128122489Y-80256261D01*
X127967845Y-80225500D01*
X127967842Y-80225500D01*
X127953742Y-80225500D01*
X127886703Y-80205815D01*
X127866061Y-80189181D01*
X126464367Y-78787487D01*
X126464365Y-78787485D01*
X126398750Y-78749602D01*
X126333136Y-78711719D01*
X126259950Y-78692109D01*
X126186766Y-78672500D01*
X126186765Y-78672500D01*
X121894941Y-78672500D01*
X121827902Y-78652815D01*
X121782147Y-78600011D01*
X121772203Y-78530853D01*
X121801228Y-78467297D01*
X121807260Y-78460819D01*
X121906786Y-78361292D01*
X121906789Y-78361289D01*
X121994394Y-78230179D01*
X122054737Y-78084497D01*
X122085500Y-77929842D01*
X122085500Y-77772158D01*
X122085500Y-77772155D01*
X122085499Y-77772153D01*
X122054738Y-77617510D01*
X122054737Y-77617503D01*
X122054735Y-77617498D01*
X121994397Y-77471827D01*
X121994390Y-77471814D01*
X121906789Y-77340711D01*
X121906786Y-77340707D01*
X121795292Y-77229213D01*
X121795288Y-77229210D01*
X121664185Y-77141609D01*
X121664172Y-77141602D01*
X121518501Y-77081264D01*
X121518489Y-77081261D01*
X121363845Y-77050500D01*
X121363842Y-77050500D01*
X121206158Y-77050500D01*
X121206155Y-77050500D01*
X121051510Y-77081261D01*
X121051498Y-77081264D01*
X120905827Y-77141602D01*
X120905814Y-77141609D01*
X120774711Y-77229210D01*
X120774707Y-77229213D01*
X120764740Y-77239181D01*
X120703417Y-77272666D01*
X120677059Y-77275500D01*
X117764742Y-77275500D01*
X117697703Y-77255815D01*
X117677061Y-77239181D01*
X113764367Y-73326487D01*
X113764361Y-73326482D01*
X113629909Y-73248856D01*
X113604231Y-73229153D01*
X113540289Y-73165211D01*
X113540288Y-73165210D01*
X113540287Y-73165209D01*
X113409185Y-73077609D01*
X113409172Y-73077602D01*
X113263501Y-73017264D01*
X113263489Y-73017261D01*
X113108845Y-72986500D01*
X113108842Y-72986500D01*
X112951158Y-72986500D01*
X112951155Y-72986500D01*
X112796510Y-73017261D01*
X112796498Y-73017264D01*
X112650827Y-73077602D01*
X112650814Y-73077609D01*
X112519711Y-73165210D01*
X112519707Y-73165213D01*
X112408213Y-73276707D01*
X112408210Y-73276711D01*
X112320609Y-73407814D01*
X112320602Y-73407827D01*
X112260264Y-73553498D01*
X112260261Y-73553510D01*
X112229500Y-73708153D01*
X106631847Y-73708153D01*
X110568847Y-69771153D01*
X118198500Y-69771153D01*
X118198500Y-69928846D01*
X118229261Y-70083489D01*
X118229264Y-70083501D01*
X118289602Y-70229172D01*
X118289609Y-70229185D01*
X118377210Y-70360288D01*
X118377213Y-70360292D01*
X118488707Y-70471786D01*
X118488711Y-70471789D01*
X118619814Y-70559390D01*
X118619827Y-70559397D01*
X118765498Y-70619735D01*
X118765503Y-70619737D01*
X118920153Y-70650499D01*
X118920156Y-70650500D01*
X118920158Y-70650500D01*
X119077844Y-70650500D01*
X119077845Y-70650499D01*
X119232497Y-70619737D01*
X119378179Y-70559394D01*
X119509289Y-70471789D01*
X119620789Y-70360289D01*
X119708394Y-70229179D01*
X119768737Y-70083497D01*
X119799500Y-69928842D01*
X119799500Y-69898153D01*
X141185500Y-69898153D01*
X141185500Y-70055846D01*
X141216261Y-70210489D01*
X141216264Y-70210501D01*
X141276602Y-70356172D01*
X141276609Y-70356185D01*
X141364210Y-70487288D01*
X141364213Y-70487292D01*
X141475707Y-70598786D01*
X141475711Y-70598789D01*
X141606814Y-70686390D01*
X141606827Y-70686397D01*
X141752498Y-70746735D01*
X141752503Y-70746737D01*
X141907153Y-70777499D01*
X141907156Y-70777500D01*
X141907158Y-70777500D01*
X142064844Y-70777500D01*
X142064845Y-70777499D01*
X142219497Y-70746737D01*
X142365179Y-70686394D01*
X142496289Y-70598789D01*
X142607789Y-70487289D01*
X142695394Y-70356179D01*
X142755737Y-70210497D01*
X142786500Y-70055842D01*
X142786500Y-69898158D01*
X142786500Y-69898155D01*
X142786499Y-69898153D01*
X142755738Y-69743510D01*
X142755737Y-69743503D01*
X142755735Y-69743498D01*
X142695397Y-69597827D01*
X142695390Y-69597814D01*
X142607789Y-69466711D01*
X142607786Y-69466707D01*
X142496292Y-69355213D01*
X142496288Y-69355210D01*
X142365185Y-69267609D01*
X142365172Y-69267602D01*
X142219501Y-69207264D01*
X142219489Y-69207261D01*
X142064845Y-69176500D01*
X142064842Y-69176500D01*
X141907158Y-69176500D01*
X141907155Y-69176500D01*
X141752510Y-69207261D01*
X141752498Y-69207264D01*
X141606827Y-69267602D01*
X141606814Y-69267609D01*
X141475711Y-69355210D01*
X141475707Y-69355213D01*
X141364213Y-69466707D01*
X141364210Y-69466711D01*
X141276609Y-69597814D01*
X141276602Y-69597827D01*
X141216264Y-69743498D01*
X141216261Y-69743510D01*
X141185500Y-69898153D01*
X119799500Y-69898153D01*
X119799500Y-69771158D01*
X119799500Y-69771155D01*
X119799499Y-69771153D01*
X119768738Y-69616510D01*
X119768737Y-69616503D01*
X119760996Y-69597814D01*
X119708397Y-69470827D01*
X119708390Y-69470814D01*
X119620789Y-69339711D01*
X119620786Y-69339707D01*
X119509292Y-69228213D01*
X119509288Y-69228210D01*
X119378185Y-69140609D01*
X119378172Y-69140602D01*
X119232501Y-69080264D01*
X119232489Y-69080261D01*
X119077845Y-69049500D01*
X119077842Y-69049500D01*
X118920158Y-69049500D01*
X118920155Y-69049500D01*
X118765510Y-69080261D01*
X118765498Y-69080264D01*
X118619827Y-69140602D01*
X118619814Y-69140609D01*
X118488711Y-69228210D01*
X118488707Y-69228213D01*
X118377213Y-69339707D01*
X118377210Y-69339711D01*
X118289609Y-69470814D01*
X118289602Y-69470827D01*
X118229264Y-69616498D01*
X118229261Y-69616510D01*
X118198500Y-69771153D01*
X110568847Y-69771153D01*
X112358681Y-67981319D01*
X112420004Y-67947834D01*
X112446362Y-67945000D01*
X150062638Y-67945000D01*
X150129677Y-67964685D01*
G37*
%TD.AperFunction*%
%TD*%
M02*
